<svg xmlns="http://www.w3.org/2000/svg" width="1066.711" height="1557.883" viewBox="0 0 1066.711 1557.883"><g transform="translate(-12337.598 -818.942)" opacity="0.05"><path d="M597.209,803.943c4.992-5.971,8.085-13.458,12.031-20.261,2.336-4.016,4.2-8.367,7.007-12.019,4.313-5.6,10.086-8.231,17.363-5.442,12.9,4.94,24.75,2.475,36.5-4.026,13.325-7.36,27.944-12.811,36.5-26.422a88.767,88.767,0,0,0,6.213-10.015c.606-1.327-.174-4.528-1.322-5.173-25.676-14.354-35.937-38.659-42.978-64.615-3.569-13.161-10.572-22.5-21.712-30.732-16.224-12-30.907-26-46.351-39.242-3.826,5.227-8.876,11.377-13.068,18.039-7.14,11.342-6.525,22.3,1.193,31.935,3.2,4.007,6.553,8.267,12.613,4.5a11.709,11.709,0,0,0,4.167-15.017,40.111,40.111,0,0,0-3.349-4.841c10.883,3.694,15.133,10.266,13.646,19.922-1.056,6.832-6.461,10.167-16.573,10.768a24,24,0,0,1-17.233-5.1c-17.381-13.484-24.071-31.156-16.059-51.355,7.387-18.621,7.163-36.665,2.79-55.659-2.037-8.85-1.808-18.38-1.377-27.537a90.614,90.614,0,0,0-5.12-34.769c-3.194-9.073-5.709-18.37-8.589-27.552-2.836-9.011-1.532-17.85,1.936-26.26,6.671-16.219,12.646-32.253,13.6-50.261.643-12.157,5.231-24.413,9.7-36.015a559.993,559.993,0,0,1,23.97-55.111c15.2-29.488,39.368-51.327,66.8-69.887,4.507-3.043,9.718-5.244,13.784-8.751,13.361-11.521,29.448-13.269,46.167-13.467,8.691-.108,16.867.933,23.218,7.477,2.7,2.78,4.415,2.358,6.883-.645,4.111-4.993,8.809-9.53,13.361-14.175,12.756-13.027,28.833-16.452,46.334-14.416,18.235,2.107,35.183,7.9,51.876,15.869,35.944,17.178,67.339,40.605,96.878,66.248,21.923,19.034,39.34,42.336,54.19,67.224,20.866,34.965,33.324,72.864,39.974,112.608a404.669,404.669,0,0,1,4.386,43.689c1.789,31.262-12.288,55.864-37.028,73.938-12.068,8.813-18.574,18.29-21.177,32.743-2.312,12.795-7.819,25.284-13.443,37.217-10.433,22.154-14.866,44.568-8.846,68.721,2.157,8.625,2.23,17.725,3.378,26.6,2.449,18.926-21.914,44.88-43.571,41.618-7.543-1.138-14.711-5.5-21.645-9.117-2.193-1.147-3.845-4.509-4.415-7.137-1.056-4.85-1.9-10.176,3.2-13.744,4.625-3.254,9.36-2.977,15.362.628-4.111,1.407-7.406,2.036-10.067,3.651a6.024,6.024,0,0,0-2.336,5.227c.385,1.521,2.8,3.12,4.615,3.542a10.224,10.224,0,0,0,6.384-.753c20.795-10.275,31.055-25.014,22.465-46.846-6.9-17.564-13.756-34.6-12.948-54.395-1.221,1.785-3.047,3.406-3.56,5.361-1.542,5.845-3.451,11.781-3.653,17.734-1.468,43.654-29.09,74.513-73.331,81.157-10.461,1.578-21,3.6-31.5,3.694-13.737.126-27.493-1.479-41.469-2.349a9.046,9.046,0,0,0,1.661,1.964,18.021,18.021,0,0,0,2.946,1.389c16.592,8.32,32.926,17.191,49.884,24.717,7.076,3.139,15.416,4.214,23.291,4.8,12.627.933,12.82.761,16.205,12.461a66.866,66.866,0,0,0,5.716,12.668c9.681,18.039,20.5,35.566,29.016,54.116,10.461,22.8,13.094,47.162,11.269,72.192a192.966,192.966,0,0,1-20.217,72.908c-7.58,15.179-20.179,26.062-34.742,34.839-12.769,7.692-13.361,8.007-6.744,21.284,29.87,59.961,48.856,123.671,67.65,187.409,13.435,45.563,25.961,91.4,38.11,137.318,6.029,22.791,10.452,45.994,15.215,69.08a33.651,33.651,0,0,1-.551,12.641c-5.285,27.993-37.78,53.4-70.852,37.925-12.269-5.739-22.254-4.108-31.807,5.11-9.37,9.037-20,16.887-28.808,26.377-21.033,22.656-47.435,29.353-77.392,27.426-13.737-.887-26.494-5.119-35.258-15.1-10.791-12.293-22.961-12.049-36.642-8.078a60.776,60.776,0,0,0-11.212,4.214c-18.842,9.79-36.905,5.495-54.454-3.084a82.99,82.99,0,0,1-32.545-28.134,79.459,79.459,0,0,0-8.792-11c-7.488-7.63-16.316-10.211-26.86-6.222-12.884,4.869-25.943,6.877-39.616,2.5-7.442-2.393-12.2-6.768-13.122-14.174-1.4-11.27-3.616-22.728-2.826-33.926,1.869-26.394,3.893-52.914,8.409-78.959,7.02-40.416,15.491-80.618,24.566-120.644,12.747-56.233,32.026-110.519,54.876-163.507,8.919-20.69,20.408-40.328,31-60.311,3.312-6.248,3.873-12.058,3.248-19.294-.733-8.445-.679-15.089-9.6-19.635-4.827-2.457-3.047-7.827.386-11.073,5-4.716,5.928-9.011,1.23-14.471-3.27-3.8-3.882-7.926,2-10.23,4.735-1.847,5.643-5.5,4.717-9.61-3.854-17.062-7.786-34.106-12.068-51.06-1.211-4.779-5.185-5.684-9.589-3.7a15.187,15.187,0,0,0-3.378,2.717c-24.933,21.643-49.783,43.366-74.836,64.866-5.846,5.011-8.792,11.106-10.433,18.326-8.409,36.858-27.095,67.789-57.07,91.691-16.7,13.313-33.266,27.193-51.619,38.023-11.095,6.554-16.506,13.637-17.464,25.588-.5,6.356-2.959,12.588-3.331,18.944-.45,7.576-3.533,12.56-11.232,13.484-7.974.958-10.178,6.061-10.8,12.507-1.634,16.756-3.029,33.531-4.589,50.3-2.753,29.586-5.157,59.208-8.452,88.733-3.34,29.819-7.3,59.595-11.581,89.3-1.827,12.7-4.928,25.229-7.942,37.718-1.367,5.684-.367,9.7,3.194,14.722a361.107,361.107,0,0,1,23.1,37.459c5.084,9.4.752,26.583-7.672,32.455a24.394,24.394,0,0,1-12.37,3.542c-33.384,1.417-63.221-8.894-90.436-27.22-7.773-5.237-8.663-13.726-8.72-21.94-.193-24.019.514-48.047-.019-72.049a774.732,774.732,0,0,0-24.768-179.216c-.146-.583-.934-1.013-2.11-2.241-8.976,12.848-14.848,26.762-19.326,41.2a406.852,406.852,0,0,0-17.91,90.241c-1.44,19.267-2.376,38.579-4.377,57.783-.917,8.8-4.368,17.313-5.744,26.09a275.354,275.354,0,0,0-3.312,31.98c-.413,10.453-4.066,18.64-13.214,24.252-.934.564-1.853,1.156-2.734,1.8-10.782,7.952-21.721,15.717-32.311,23.92-18.161,14.066-39.386,18.594-61.7,18.173-24.621-.466-31.651-16.793-22.767-38.982,5.139-12.821,13.426-24.476,20.71-36.409,4.2-6.886,7.093-13.6,6.736-22.037-.4-9.62,1.221-19.3,1.679-28.968.339-7.15.476-14.336.285-21.491q-.716-26.857-1.827-53.713c-1.11-27.211-2.6-54.413-3.46-81.632-.688-21.509-.679-43.035-.99-64.553-.037-2.869.092-5.755-.2-8.6-.386-3.712-2.129-5.918-6.54-5.138-8.186,1.453-13.392-2.717-18.767-8.367-14.086-14.826-17.665-33.294-20.265-52.142-.66-4.8-.973-9.181-5.653-12.04a5.736,5.736,0,0,1-2.414-3.487c-2.336-13.654-4.955-27.282-6.571-41.017-1.294-10.992-1.211-22.136-1.881-33.2C3.717,992.365.771,961.308.082,930.2c-1.157-51.983,10.011-102.252,25.19-151.769,3.882-12.627,7.689-25.293,11.99-37.791,9.268-26.986,24.8-50.966,39.267-75.329,9.865-16.632,25.457-28.439,42.81-37.674,8.663-4.617,17.243-9.378,25.915-13.969,4.34-2.3,4.606-4.617,1.211-8.215-13.874-14.695-26.815-30.322-41.488-44.2-15.857-15.017-21.436-34.3-28.144-53.651-8.222-23.713-7.35-47.9-6.131-72.192.688-13.889-5.7-23.158-17.6-29.613A50.347,50.347,0,0,1,27.422,352.37c1.761-10.077,3.543-20.109,13.334-25.839a46.286,46.286,0,0,1,15.774-6.015c9.131-1.4,9.306-.815,9.332-10.356.045-15.061-.028-30.123-.055-45.2a353.833,353.833,0,0,1,9.829-85.083c2.982-12.238,5.606-24.127,11.884-35.2,5.368-9.477,10.765-18.755,20.309-24.888,2.671-1.721,4.589-3.586,2.157-6.922-7.837-10.7-11.783-22.638-7.847-35.448a78.8,78.8,0,0,1,28.71-40.849,122.93,122.93,0,0,0,15.656-14.838A12.851,12.851,0,0,0,150.149,9.11c-1.688-7.424,2.11-10.338,10.379-8.634,15.334,3.148,30.44,7.595,45.884,10.015,38.2,6.006,76.736,10.131,114.764,16.981,37.217,6.706,74.91,12.821,109.717,28.241,23.373,10.356,37.092,29.111,42.094,53.973.872,4.3,3.083,9.28,6.35,12.032,20.134,16.91,28.1,39.673,32.7,63.915a170.62,170.62,0,0,1,2.423,30.914c.156,29.415.073,58.832-.578,88.231-.276,12.848-2.18,25.65-3.3,38.48a48.293,48.293,0,0,0-.477,10.7c.238,1.713,2.492,3.651,4.3,4.509,1.853.87,4.34.341,6.487.761,17.509,3.5,24.5,13.969,21.593,31.209-2.781,16.505-11.086,30.223-25.052,38.848-17.995,11.106-22.4,27.537-25.025,46.137-5.735,40.62-18.6,78.807-46.159,110.563-11.523,13.3-25.144,24.915-38.2,36.876-7.474,6.846-7.993,6.635-.533,13.574A141.173,141.173,0,0,1,434.7,671.041c6.029,10.713,16.729,18.819,24.686,28.609,26.6,32.709,48.177,68.139,58.263,109.255,5.36,21.841,9.938,43.859,15.472,68.479m412.5-135.695-2.671.887c.386.3.779.583,1.157.879.422-.672.853-1.345,1.275-2.017q2.327-.981,4.634-1.946c13.334-1.632,20.665-10.23,24.107-21.769a74.278,74.278,0,0,0-1.09-45.393c-3.029-9.082-4.158-17.995-1.11-27.3,6.331-19.34,12.132-38.857,18.7-58.124,9.032-26.472,7.809-52.682-1.018-78.835a52,52,0,0,0-4.1-7.657c-.825.224-1.652.44-2.477.663,0,10.57.073,21.147-.028,31.711-.092,9.306,1.11,18.926-.881,27.856-4.267,19.105-9.8,37.987-15.637,56.725-5.561,17.859-7.406,35.6-2.193,53.776,1.579,5.5,3.019,11.036,4.285,16.613,3.762,16.533-.21,31.156-11.571,43.9-2.336,2.618-4.57,5.317-6.852,7.979q-2.272,1.022-4.533,2.045M78.818,388.619c5.047-3.219,5.129-7.8,2.4-13.009q-1.09,6.6-2.166,13.207c-.615.555-1.23,1.121-1.836,1.673.394.313.779.628,1.174.942.137-.942.285-1.883.422-2.815M164.6,547.886c-3.23,2.232-7.163,3.908-9.507,6.823-3.13,3.864-5.028,8.672-7.451,13.084l-1.45.214c.184.053.441.215.542.152a4.046,4.046,0,0,0,.66-.645c7.232-5.334,14.838-10.382,16.959-19.895l1.4-.887-1.157,1.156M681.624,655.718c-.22-.529-.431-1.065-.651-1.6-.248.313-.5.628-.752.942.533.143,1.073.3,1.605.44,4.139,10.248,12.177,16.747,21.841,21.67.266.529.533,1.05.8,1.578.3-.341.606-.691.917-1.031-.542-.215-1.09-.421-1.624-.636a48.688,48.688,0,0,0-22.134-21.364m-375.877-194-1.643-1.283c.386.583.779,1.174,1.157,1.757,4.295,10.122,8.589,20.234,13.792,32.5,3.413-14.856-1.09-24.556-13.306-32.975M715,918.488c.844-3.1,2.927-6.5,2.249-9.235a20.968,20.968,0,0,0-6.268-10.7c-5.259-4.348-15.444-.053-19.986,7.62,22.268-3.694,23.713-2.968,23.291,11.611-.367.672-.726,1.354-1.09,2.026.606-.44,1.2-.879,1.808-1.318M791.732,969.8c-1.8-9.665-2.781-10.741-11.056-11.466,3.893,4.1,7.432,7.818,10.966,11.547,3.065,10.1,4.846,11.924,13.214,12.489,7.786.539,13.792-2.188,17.9-10.992-11.416,3.138-21.923,8.078-31.017-1.578M149.022,111.3l.688.161-.945.09a56.407,56.407,0,0,0-.779-5.98c-2.477-10.7-5.111-21.383-7.58-32.1-1-4.348-1.713-8.76-2.551-13.152-2.753,18.46-3.581,36.49,11.168,50.987m275.5,447.2c.22.251.441.493.67.735l-.908-.52c-3.019-15.008-12.408-26.539-21.473-38.238,3.6,14.695,7.02,29.5,21.712,38.023M160.481,526.6c-8.564,5.693-17.752,10.678-25.474,17.322A18.651,18.651,0,0,0,129,562.231c7.515-7.531,14.994-14.552,21.841-22.11,3.708-4.088,6.322-9.117,9.424-13.726l1.542-.539c-.311-.26-.615-.511-.917-.771-.137.5-.266,1.013-.4,1.521M626.565,375.789a90.158,90.158,0,0,0-41.4,21.8c-6.911,6.411-12.507,13.682-13.392,23.446-.6.7-1.193,1.389-1.789,2.089.386.251.779.5,1.165.753.137-1.013.276-2.017.422-3.021a157.408,157.408,0,0,1,45.865-38.507c3.248-1.785,5.938-4.528,8.876-6.823.486-.161.964-.313,1.45-.475-.22-.027-.533-.152-.634-.053a3.57,3.57,0,0,0-.568.79m-233.14,155.1c-.212-1.2-.413-2.4-.623-3.6-.413.313-.835.628-1.246.942.688.834,1.386,1.674,2.074,2.5,4.58,12.22,8.856,24.574,13.884,36.616,2.284,5.469,6.056,10.338,9.158,15.483.771-.456,1.557-.913,2.336-1.369.019-20.827-14.673-34.822-25.575-50.575M249.6,568.531c-3.138,3.452-6.57,6.679-9.351,10.391-9.332,12.445-14.482,25.82-9.268,41.959,6.24-15.726,12.224-30.564,17.959-45.5.789-2.045.377-4.537.514-6.823.45.152.891.313,1.331.466-.394-.17-.789-.332-1.183-.493M197.9,93.772c.1.529-21.629-37.987-32.33-57.084-.716.4-1.431.806-2.157,1.217,4.882,22.405,14.637,42.022,34.487,55.874m37.372,475.868c-12.177,6.985-21.519,16.461-25.631,29.892-2.881,9.4,1.174,17.258,7.277,24.556-2.4-18.612,5.24-33.684,15.416-48.048a30.909,30.909,0,0,0,2.716-6.607c.3-.466.606-.923.908-1.381l-.688,1.587M945.828,362.8c.045.493.1.986.146,1.488l1.157-.564c-.5-.26-1-.511-1.5-.761-12.719-17.456-44.361-38.956-56.722-38.023a23.141,23.141,0,0,0,3.606,4.223c15.069,10.543,30.164,21.069,45.415,31.352,2.157,1.444,5.249,1.559,7.9,2.282M444.05,124.062a3.34,3.34,0,0,0,.459.834c.1.1.431-.027.66-.044-.441-.189-.881-.377-1.331-.564-2.8-12.606-10.949-22.212-19.446-31.29-20.71-22.092-47.544-35-75.294-46.316-.863-.35-2.083.126-3.331.242,11.095,8.215,22,16.245,32.844,24.351,19.986,14.918,41.5,28.063,57.373,47.76,1.869,2.312,5.341,3.38,8.066,5.03m-19.757,2.1a2.957,2.957,0,0,0,.386.879c.092.117.441.018.679.018l-1.266-.672A107.845,107.845,0,0,0,390.384,88.1c-10.966-7.657-22.437-14.677-34.082-21.3-14.36-8.153-29.139-15.594-45.717-19.26a264.881,264.881,0,0,0,25.3,19.831q38,26.2,76.277,51.983c3.818,2.586,8.085,4.555,12.146,6.805M318.442,72.788l-.413-1.345c-.019.18-.12.44-.037.539a3.667,3.667,0,0,0,.726.555c18.822,18.451,37.276,37.273,56.63,55.175a155,155,0,0,0,27.439,19.321c5.57,3.245,12.517,5.147,21.178.583-9.122-8.383-16.573-16.864-25.6-23.186-22.567-15.772-45.817-30.6-68.863-45.708-3.477-2.282-7.359-3.956-11.056-5.933M804.769,287.712c-.156-.539-.321-1.076-.477-1.614l-.945.815q.813.3,1.643.592a27.5,27.5,0,0,0,2.45,5.729c12.278,17,25.3,33.1,43.277,45.124,25.016,16.735,48.288,36.176,74.184,51.4a273.417,273.417,0,0,1,81.719,73.661c3.368,4.518,6.579,9.172,9.855,13.762,1.468-2.13,1.7-3.577,1.294-4.824A126.552,126.552,0,0,0,985.4,419.565c-26.181-25.426-57.841-43.681-87.15-64.992-19.63-14.283-39.864-27.748-59.666-41.807-11.444-8.123-22.556-16.685-33.816-25.058M118.691,1458.254c-4.928-.368-9.9-.5-14.793-1.183-5.377-.744-10.664-2.739-16.014-2.851-7.319-.152-9.233,2.241-10.333,9.764,11.462.4,23.281-1.217,33.679,5.854a28.133,28.133,0,0,1-10.452,1.856c-8.03-.018-16.059-.2-24.08-.493-3.644-.134-6.229.663-7.654,4.375-3.451,8.993-6.911,17.986-10.9,26.744-1.973,4.348.2,5.684,3.46,7.227,8.672,4.1,17.417,1.426,25.7-.548,25.089-5.953,47.885-16.263,67.219-33.809,7.085-6.428,10.791-12.475,10.508-21.965-.2-6.814-2.294-8.095-8.891-8.113-17.151-.044-34.312-.995-51.454-1.826-3.946-.2-7.856-1.964-11.764-1.882-2.477.053-4.91,2.188-7.369,3.38,1.982,1.632,3.737,4.168,5.992,4.734,7.745,1.946,15.71,3.021,23.493,4.859,1.4.332,2.3,2.672,3.426,4.088Zm886.5-962.02.276,1.673c.358-.251.716-.493,1.073-.735-.523-.251-1.046-.493-1.57-.744a35.4,35.4,0,0,0-1.386-6.105c-17.978-42.75-46.7-76.413-88.675-98.29-24.484-12.758-48.076-26.744-71.513-41.278a246.34,246.34,0,0,1-80.224-79.182,40.928,40.928,0,0,0-3.23-4.007c.688,14.193,3.581,27.524,10.847,39.592,11.523,19.16,27.585,34.016,45.994,46.818,29.8,20.719,61.273,38.723,93,56.4C944.432,429.7,975.275,453.4,996.8,487.142c2.18,3.406,5.561,6.085,8.387,9.092M161.946,15.157c.12-.189.238-.377.349-.564-.193.09-.394.18-.587.278,12.233,17.769,24.943,35.262,36.594,53.4A366.617,366.617,0,0,0,249.688,130.9c11.1,10.973,23.887,18.612,39.368,22.02,9.223,2.036,18.219,5.156,27.5,6.846,13.236,2.411,26.419,2.51,40.406-5.477-12.113-11.655-22.638-23.125-34.569-32.994-24.851-20.549-50.28-40.453-75.791-60.222-18.583-14.407-37.216-28.8-60.392-36.056-6.506-2.045-12.325-6.133-18.574-9.028a20.183,20.183,0,0,0-5.693-.829M818.763,1220.19c.844-.108,1.688-.224,2.524-.341a59.472,59.472,0,0,1,3.175,9.378c2.119,12.323,4.019,24.682,5.8,37.047,4.7,32.545,9.874,65.037,13.775,97.671,4.552,38.005,7.9,76.146,11.911,114.213.651,6.213,1.992,12.355,3.295,20.245,6.268-5.334,11.434-9.226,15.977-13.726,8.332-8.275,17.839-10.616,29.016-6.846,6.2,2.1,12.389,4.26,18.657,6.151,15.069,4.564,29.136.744,41.865-6.805a20.334,20.334,0,0,0,8.8-13.815c.934-12,1.532-24.566-1.129-36.167-8.048-35.143-18-69.852-26.659-104.854-16.481-66.623-35.4-132.574-59.749-196.84-9.1-24.01-22.327-46.523-33.669-69.716-2.3-4.716-4.919-6.276-11.056-4.6-9.746,2.662-20.116,3.12-30.191,4.689-8.608,1.327-17.353,2.268-25.714,4.528-10.185,2.761-10.011,3.281-9.433,13.332.266,4.654.146,9.343.679,13.969.835,7.351-2.734,11.171-9.5,13.565-10.315,3.651-20.648,3.523-31.3,2.035-6.81-.951-9.626-4.608-9.829-10.713-.229-6.814.311-13.663-.294-20.433-.358-4.079-1.275-8.76-3.68-11.888-6.229-8.1-8.3-17.385-9.25-26.928-.752-7.512-6.772-11.333-10.433-16.784-.385-.574-2.4-.942-2.762-.564-5.24,5.442-13.03,2.25-18.842,5.433-6.02,3.3-9.718,3.479-13.518-3.981-4.441-8.714-8.938-8.258-14.015-.18-22.1,35.1-40.845,71.886-53.335,111.245-12.636,39.834-22.869,80.386-35.027,120.373a488.126,488.126,0,0,0-17.8,91.414c-2.432,23.125-5.956,46.164-7.956,69.331-1.789,20.691-2.414,41.484-3.029,62.248-.358,12.283,10.122,17.9,20.905,11.562a65.267,65.267,0,0,0,7.587-6.2c15.738-12.83,36.707-10.462,48.912,5.389,7.92,10.292,15.545,20.862,24.227,30.511,5.176,5.755,11.9,10.3,18.375,14.776,5.386,3.729,11.131,3.38,17.482.744,11.056-4.59,22.676-7.89,33.9-12.122,10.351-3.891,19.473-1.327,27.873,4.564a153.528,153.528,0,0,1,15.977,13.084c17.9,16.583,44.057,20.567,65.6,8.857,14.159-7.692,23.392-20,24.712-35.8.908-10.9-1.633-22.083-2.706-33.128-2.515-25.659-5.148-51.3-7.6-76.952-1.7-17.832-2.336-35.8-4.928-53.49a859.155,859.155,0,0,1-8.409-113.493c-.045-3.335.514-6.671.79-10.006M299.537,336.979l3.156.081c.193,2,.542,4,.542,6-.028,28.331.037,56.663-.285,84.994-.064,5.781,1.266,7.943,7.717,8.383,21.676,1.488,41.056,9.28,58.263,22.343,10.388,7.89,20.849,15.7,31.531,23.2,12.526,8.8,23,8.428,32.274-3.945,13.08-17.429,27.31-34.562,31.394-57.013,1.973-10.875,5.864-21.4,7.856-32.267,3.524-19.312,8.782-38.767,8.736-58.16-.064-30.007-3.974-60.016-6.258-90.023-.679-8.921-.67-17.952-2.23-26.727-3.477-19.527-16.766-32.922-31.541-45.008a10.269,10.269,0,0,0-8.13-1.521c-10.553,3.195-20.941,1.909-31.494.3-12.856-1.964-24.969-1.407-36.844,5.882a74.956,74.956,0,0,1-38.506,10.8c-20.052.242-38.285-6.338-54.518-16.676-12.288-7.837-24.712-13.037-39.121-15.061-19.371-2.726-37.67-9.96-57.832-10.517-12.205-.332-21.537,2.08-29.888,9.423-14.041,12.346-26.612,26.472-31.715,44.37-6.718,23.624-12.893,47.7-15.883,71.976-3.5,28.34-3.644,57.1-4.606,85.7-.872,25.534,2.959,50.432,10,75.2,5.511,19.408,18.194,32.254,33.565,43.512,9.846,7.19,16.3,6.6,25.41-1.217,4.092-3.514,7.451-7.846,11.3-11.655,2.534-2.492,4.955-5.666,8.1-6.895,20.309-7.926,40.323-16.954,63.291-14.165,9.8,1.184,9.883.431,12.241-9.172.111-.421,1.148-.628,1.313-.709,4.955,3.936,9.323,8.419,14.581,11.36,8.983,5.02,19.611-1.048,20.657-11.162.66-6.42,1.514-12.821,1.869-19.25,1.046-18.971,1.78-37.952,2.873-56.923.3-5.173,1.44-10.3,2.193-15.457M748.33,303.774c-7.241,12.157-12.856,23.455-20.2,33.558-18.344,25.255-44.406,41.008-72.734,53.3-11.847,5.138-22.006,10.983-25.382,24.314-.779,3.043-2.817,5.781-4.332,8.634-12.856,24.181-23.713,49.1-26.751,76.494-3.156,28.421.064,56.331,17.886,79.624,11.241,14.686,26.484,26.5,40.258,39.269,6.616,6.123,14.032,11.432,21.022,17.191,14.8,12.238,28.9,25.427,44.526,36.561,14.737,10.49,31.154,16.012,50.224,9.073,9-3.282,19.289-3.21,29-4.636,7.185-1.065,14.518-1.534,21.547-3.219,15.564-3.73,30.953-8.15,46.452-12.113,13.527-3.461,26.494-7.934,37.285-17.088,6.084-5.156,11.939-10.66,18.51-15.16,12.6-8.634,20.326-20.774,25.061-34.374,8.635-24.862,18.2-49.66,17.546-76.62a60.467,60.467,0,0,1,.4-7.5c2.395-23.992-11.031-53.964-31.833-66.561-21.391-12.947-43.791-24.305-65.752-36.347C851.977,397.709,831.918,388.617,814,376.5a200.619,200.619,0,0,1-65.669-72.729M149.048,632.9c-17.775.753-30.485,11.27-43.847,20.173-1.532,1.022-2.046,4.456-1.918,6.706.339,6.061,1.735,12.077,1.909,18.129q1.322,46.222,2.11,92.453a53.6,53.6,0,0,1-2.249,15.789c-6.852,23.3-14.82,46.3-20.866,69.788-2.982,11.584-3.515,23.974-3.606,36.015-.129,16.793,2.024,33.611,1.688,50.387-.441,22.181-2.18,44.345-3.737,66.484-.413,5.891,1.605,8.463,7.46,9.324,16.215,2.367,32.321,5.414,48.564,7.487,9.223,1.175,12.012,2.9,11.679,11.789a96.235,96.235,0,0,1-2.491,19.114c-2.249,9.064-4.285,10.391-13.765,10.068-14.279-.484-28.531-1.521-42.81-1.955-8.269-.251-8.387.081-8.1,8.454.551,16.084,1.4,32.169,1.789,48.262.137,5.325,2.249,7.782,7.663,8.311,10.9,1.065,21.73,3.012,32.651,3.641,29.843,1.721,57.841-6.356,85.132-16.954,13.435-5.209,22.18-14.865,28.007-28.367,10.718-24.825,15.013-50.661,16.206-77.2,1.065-23.607,1.349-47.249,2.267-70.865.67-17.115-2.2-33.047-10.7-48.513a438.016,438.016,0,0,0-52.321-75.155c-8.957-10.391-18.491-20.3-27.562-30.6-5.36-6.085-7.185-13.108-4.36-20.961,1.688-4.7,2.991-9.548,4.964-14.121,6.3-14.677,6.384-14.642-9.525-17.94-10.636-2.215-10.654-2.833-12.995-13.888-4.12-19.411-.752-38.562,1.662-57.676,1.183-9.343,4.57-18.424,7.093-28.179m188,431.975c-3.809-1.978-5.57-2.985-7.406-3.8-8.323-3.73-10.351-6.679-9.911-15.528.2-4.286.945-8.544,1.44-12.811,1.827-15.573,1.827-15.591,18.178-15.3a90.582,90.582,0,0,1,13.169.546c12.59,2.1,24.7-.546,37.009-2.358,6.423-.951,8.608-3.837,9.085-9.718,1.836-22.477,4.028-44.918,5.966-67.377,2.083-24.252,4.488-48.5,5.891-72.8.964-16.685,2.647-33.318-.184-50.217-7.432-44.38-10.6-89.136-.476-133.39,3.524-15.421-2.515-24.584-12.214-33.846-4.643-4.438-17.674-6.671-22.6-4.178-7.369,3.721-6.54,10.283-6.1,16.8.945,14.273,1.45,28.582,2.671,42.838,1.4,16.344-1.478,29.819-19.831,35.836-6.506,2.142-8.085,7.63-5.735,14.13a138.019,138.019,0,0,1,4.707,15.395c2.671,11.5,1.367,22.073-8.462,30.348-3.047,2.563-5.681,5.629-8.846,8.051-18.767,14.318-32.962,32.3-44.488,52.476q-3.737,6.563-7.736,12.973a104.607,104.607,0,0,0-15.564,48.63c-2.579,37.153-3.753,74.395-6.47,111.532-1.57,21.357-5.02,42.588-7.672,63.871-1.5,12.1.486,24.422,11.212,30.579,12.976,7.441,27.595,13.692,42.268,16.344,17.481,3.155,35.779,2.627,53.712,2.483,29.026-.224,29.393,1.506,31.237-29.981.028-.511-.743-1.065-1.377-1.928-5.6,2.206-11.5,4.053-16.95,6.778-16.506,8.23-30.476-.036-42.221-8.688-8.213-6.043-12.948-17.088-18.051-26.52-3.955-7.316-1.23-11.826,6.993-14.82,5.414-1.978,10.92-3.7,18.767-6.338m532.28-86.5c6.753,4.143,15.316,9.477,23.96,14.667,6.626,3.972,7.552,3.765,10.14-3.272,11.958-32.464,21.584-65.082,13.884-100.37-5.084-23.292-11.523-45.734-26.53-65.009-6.645-8.535-12.957-17.143-15.682-27.946-2.258-8.921-2.7-8.215-12.233-6.518-11.792,2.1-23.758,4.168-35.689,4.375-24.136.431-48.428-2.071-72.409-.288-27.208,2.036-53.878,2.941-80.434-4.366-16.684-4.59-33.587-8.445-51.289-12.866-2.937,4.6-6.883,10.543-10.562,16.631-2.734,4.528-2.024,7.3,3.68,9.728,30.081,12.779,61.508,21.024,94.089,22.2,54.372,1.964,108.706.682,162.258-11.791-1.869,6.787-1.9,6.662-6.7,7.729C831.1,828.98,795.62,829.339,760.364,831.7c-27.953,1.883-55.492-1.658-82.82-6.886-21.749-4.159-44.278-5.863-63.494-18.561-5.111-3.38-8.452-.861-11.085,4.053-12.939,24.181-33.587,42.247-52.179,61.872-7.333,7.738-12.457,15.842-12.811,26.35-.238,7.137.12,14.3.514,21.437a32.163,32.163,0,0,0,1.9,6.814c2.532-1,5.606-1.417,7.516-3.093,7.607-6.694,14.655-14,22.268-20.666,16.062-14.089,32.455-27.789,48.447-41.93,3.717-3.291,7.35-4.035,10.609-1,3.286,3.058,6.6,6.922,7.892,11.037,3.644,11.562,6.194,23.462,9.3,35.2,1.414,5.317,3.114,10.561,5.185,17.5,1.9-3.245,3.395-4.68,3.552-6.25,1.009-10.024,7.038-14,16.729-14.964,5.285-.52,11.056-1.543,15.481-4.159,16.316-9.665,20.408-9.773,35.2.843,1.339.968,5,1.013,5.928.018,9.563-10.257,20.024-7.989,30.988-2.891,1.557.726,4.1,1.217,5.322.456,9.058-5.612,13.417-5.38,21.62-.555a323.694,323.694,0,0,0,30.687,15.974c9.084,4.108,9.6,3.406,12.012-6.464,3.387-13.879,6.68-27.794,10.36-41.6,2.18-8.141,6.277-9.207,12.756-3.613a20.092,20.092,0,0,1,4.57,5.962c4.726,9.235,9.626,18.408,13.737,27.909,8.231,19.052,10.324,38.544,3.175,58.519-1.065,2.959-.7,6.375-1.246,9.539-.853,4.9-1.918,9.755-3.138,15.851M81.177,1257.371c.285.018.568.027.844.044q2.918,76.239,5.855,152.469a63.582,63.582,0,0,0,1.09,9.594c1.827,9.414,3.239,10.954,12.948,10.8,12.783-.189,25.6-.672,38.307-1.891,14.673-1.407,23.85-9.746,26.282-24.135,2.79-16.568,5.6-33.227,6.635-49.957a408.589,408.589,0,0,1,21.061-104.79c5.313-15.869,11.131-31.927,19.482-46.37,11.627-20.093,13.636-40.14,6.571-61.522-2.588-7.836-2.8-7.334-10.47-4.276-22.19,8.824-45.351,15.7-69.248,12.337a85.042,85.042,0,0,0-51.619,8.6c-3.717,1.838-5.744,3.6-5.891,7.827-.422,12.171-1.557,24.314-1.771,36.481-.311,18.256-.083,36.526-.083,54.789m275.824-32.142c-.285-.027-.559-.044-.844-.071q0-26.87.019-53.732c.009-4.124.137-7.772-5.928-8-9.113-.35-18.188-1.9-27.3-2.017A175.618,175.618,0,0,1,258,1148.259c-7.59-3.111-8.231-3.067-9.388,4.385-1.165,7.531-5.157,11.377-12.415,12.991-1.918.431-4.964,1.946-5.084,3.183-.844,8.724-3.882,17.76,1.331,26.117,9.865,15.822,14.729,33.406,17.721,51.311,8.424,50.477,12.811,101.384,15.84,152.416a64.194,64.194,0,0,0,3.029,14.6c2.579,8.52,8.589,12.883,17.839,12.839,10.251-.053,20.5.288,30.742,0,13.417-.377,15.491-2.16,18.775-14.73a355.238,355.238,0,0,0,11.679-68.507c2.376-39.242,5.9-78.423,8.938-117.628m65.842-541.712c-6.791,36.679-6.286,71.439-2.505,106.547,1.936,17.952,10.26,32.079,18.842,47.141,8.066,14.139,13.617,29.864,18.546,45.42,4.4,13.87,5.891,28.6,9.662,42.694,3.038,11.351,7.773,22.253,11.342,33.478,2.817,8.841,1.4,12.2-7.516,14.292-5.891,1.381-5.709,4.2-4.754,8.311.486,2.089,1.349,4.108,1.652,6.213,1.688,11.745-2.579,17.242-14.692,19.178-3.974.636-8.213.672-11.835,2.142-6.571,2.662-12.526,2.448-16.9-.87-6.819,6.508-12.6,12.956-19.345,18.237-12.49,9.781-12.655,9.449-4.1,23.356,3.387,5.5,6.4,11.234,9.608,16.846,1.422,2.492,2.854,4.985,4.377,7.424,2.541,4.062,5.606,5.246,9.929,2.08,17.233-12.627,37.083-22.9,51.231-38.229,20.357-22.1,38.09-46.587,44.026-77.725,4.938-25.863,9.754-51.311,4.919-77.553-9.6-52.135-26.878-101.356-56.6-146.113a273.21,273.21,0,0,0-45.884-52.87M26.218,1038.26c0,5.37-.028,10.741,0,16.111.019,3.577,1.386,5.237,5.442,4.232,8.818-2.2,17.665-4.339,26.593-6.043,4.726-.913,5.4-3.5,5.4-7.522.045-50.509.377-101.006.285-151.518-.037-20.538,2.442-40.416,10.416-59.666a292.687,292.687,0,0,0,11.269-34.581c7.727-28.145,8.2-57.255,10.461-86.044.872-11.072-2.211-22.6-4.552-33.71-1.331-6.33-4.533-7.074-9.066-2.116A102.311,102.311,0,0,0,67.2,698.043a458.732,458.732,0,0,0-19.363,41.906,179.609,179.609,0,0,0-10.664,33.567C29.448,814.2,21.509,854.851,18.711,896.308c-2.1,31.138-3.321,62.015,2.359,92.964,2.959,16.126,3.184,32.582,5.148,48.881M840.685,784.121c-2.312-6.375-6.8-9.244-11.342-12.067-16.014-10-32.43-19.437-47.9-30.178-11.755-8.159-19.418-19.464-18.289-34.625.312-4.214-.844-6.662-5.782-6.966a124.077,124.077,0,0,1-20.657-2.434c-6.1-1.425-7.736.924-8.755,6.052-1.671,8.367-3.937,16.632-5.874,24.95-3.426,14.757-13.334,24.118-26.365,31.227-9.141,4.985-17.908,10.649-28.236,16.855,4.332,1.623,6.827,3.164,9.452,3.443,15.939,1.686,31.889,4.108,47.866,4.375,35.175.6,70.377.09,105.569-.018,3.13-.009,6.249-.359,10.315-.609M256.515,498.134c-14.72,3.362-33.523,7.5-52.206,12.1-2.937.717-5.542,3.347-7.942,5.5-5.148,4.617-6.112,9.808-2.909,16.3,8.764,17.8,30.063,26.7,48.7,19.034,16.839-6.922,33.348-9.467,50.49-1.389,3.569,1.673,7.736,2.089,11.434,3.56,13.775,5.451,25.693-.332,37.073-6.492,3.561-1.928,6.14-7.128,7.35-11.323a69.408,69.408,0,0,0,2.11-18.039,9.716,9.716,0,0,0-8.057-10.176,88.6,88.6,0,0,0-11.755-2.3c-23.272-2.224-46.56-4.277-74.294-6.787M193.09,720.5c-5.57,9.584-11.212,17.788-15.3,26.682-6.3,13.709-7.786,27.319,5.386,38.795a38.939,38.939,0,0,1,5.24,6.858c23.116,32,48.307,62.7,65.064,98.721.394.843,1.57,1.354,3.147,2.653,1.046-3.443,2.845-6.428,2.647-9.28-.872-12.417-.276-25.427-4.01-37.056-6.828-21.32-15.84-42.031-24.943-62.57-4.46-10.068-11.279-19.133-16.839-28.754-6.579-11.369-12.948-22.854-20.408-36.056m536.2,331.43c14.141,7.828,28.7,8.535,43.819,3.066,9.187-3.326,18.647-6.006,28.118-8.482,14.746-3.855,29.6-7.351,44.434-10.884,17.381-4.143,29.66-16.431,43.663-25.965,3.27-2.232,3.909-5.138.129-7.639-7.534-4.993-14.911-10.266-22.786-14.677-7.828-4.375-12.333-1.928-13.224,6.743-.615,5.9.358,12.247-9.544,9.343-1.936-.564-5.424,1.964-7.4,3.855-13.013,12.588-29.466,16.353-46.8,18.237-10.9,1.193-20.583.376-25.117-11.584-.422-1.085-1.982-1.766-3.717-3.228.137,7.342,1.33,14.695-7.552,16.4a32.495,32.495,0,0,1-12.985-.323c-4.891-1.13-9.379-3.855-14.215-5.343-1.954-.6-4.368.233-6.579.412.523,2.232.294,5.37,1.725,6.5,3.3,2.627,7.415,4.276,11.2,6.321,3.114,1.673,7.672,1.8,8.479,8.15-7.809-2.054-14.591-3.837-22.051-5.792,3.479,11.727,15.774,8.194,22.254,14.283l-11.847.609m-388.138,410.23c-11.453-7.773-20.658,5.317-33.127.5,4.5-3.4,7.35-5.953,10.581-7.9,3.6-2.16,7.534-3.756,11.324-5.6-.212-.771-.413-1.543-.623-2.322q-12.613,1.776-25.226,3.542c-.146-.654-.294-1.3-.45-1.946q3.923-2.959,7.828-5.933c-.2-.726-.413-1.462-.615-2.2-7.965,0-15.977.619-23.868-.117-20.731-1.927-20.757-2.13-22.216,18.246a20.866,20.866,0,0,0-.165,2.13c.276,8.329,2.478,15.214,11.314,19.061,6.947,3.021,14.673,6.124,19.647,11.369,15.123,15.95,33.964,17.026,53.61,14.444,17.129-2.241,19.3-6.778,13.315-22.414-4.332-11.323-13.315-15.582-25.382-11.934-3.13.942-6.093,2.519-9.268,3.111-2.093.394-4.422-.466-6.654-.761,1.386-1.631,2.442-3.908,4.2-4.788,4.827-2.376,9.957-4.159,15.765-6.5M491.175,384.7c1.23-.152,2.459-.3,3.689-.449,2.89-30.94,5.917-61.863,8.617-92.821,3.368-38.535-1.869-76.486-8.993-114.231-2.211-11.714-9.37-21.1-19.335-27.677-2.959-1.964-8.121-.744-12.269-.986a82.951,82.951,0,0,0,.835,10.041c.394,2.017,1.909,3.819,2.8,5.764,8.3,17.967,15.967,36.31,16.785,56.205,1.89,46.192,2.937,92.409,4.3,138.617.137,4.661-.358,9.378.238,13.969.5,3.927,2.166,7.719,3.321,11.562m305.5-151.071c3.312,1.506,6.571,3.155,9.957,4.5,27.015,10.723,54.473,20.5,81,32.253,50.049,22.181,95.8,50.54,130.491,93.448.238.3,1.046.17,1.557.242.165-.421.486-.861.377-1.041-15.013-23.849-31.7-46.478-53.839-64.506-12.333-10.041-26.181-18.3-38.618-28.233-38.037-30.366-82.177-40.2-130.933-36.665M319.193,726.6a23.2,23.2,0,0,0-2.336,3.12c-9.81,20.639-18.73,41.736-29.669,61.782-6.928,12.7-13.509,25.328-16,39.422-1.4,7.943-5.836,16.126-1.725,24.629,1.367-.341,2.367-.288,2.633-.7,15.7-23.517,35.5-43.518,56.214-62.741,3.175-2.941,6.635-5.909,8.745-9.548,2.037-3.523,4.313-8.41,3.34-11.844-4.424-15.627-10.461-30.707-21.217-44.12M1023.1,406.139c.615-.5,1.23-1,1.853-1.5a36.335,36.335,0,0,0-.955-4c-11.553-32.851-33.183-59.523-60.4-79.973-44.957-33.791-96.713-55.139-152.068-67.69a15.8,15.8,0,0,0-3.387-.027c34.881,18.713,70.073,35.764,105.4,52.511,14.546,6.895,28.341,14.73,40.121,25.668,8.745,8.113,17.867,15.9,26,24.575,12.3,13.134,23.915,26.879,35.725,40.435,2.762,3.174,5.148,6.662,7.708,10M78.9,360.682c.587,0,1.174-.009,1.761-.009.955-3.738,2.491-7.441,2.744-11.225.973-14.237,1.557-28.51,2.239-42.765.761-16.058.559-32.222,2.515-48.136,1.514-12.3,5.634-24.3,8.754-36.391,7.048-27.327,13.462-54.921,31.922-77.795.973-1.193,1.129-3.021,1.771-4.887-12.085-2.637-21.3,1.2-27.227,10.356A161.016,161.016,0,0,0,87.94,179.214c-8.709,22.668-10.607,46.706-11.131,70.6-.733,33.567-.019,67.162.238,100.738.028,3.38,1.211,6.752,1.853,10.131m87.094,260.347c-12.205,28.807-15.545,58.545-16.573,88.7a12.5,12.5,0,0,0,1.853,6.985c3.368,5.03,18.831,9.737,24.043,7.747,6.626-2.529,15.453-17.223,13.426-23.974-4.184-14-4.231-28.1-3.634-42.5.623-14.946-3.569-28.349-19.114-36.948m175.422,431.914.467,3.4h23.868c-3.114,7.63-4.387,9.207-11.99,11.539-9.011,2.771-18.219,4.958-27.347,7.37-3.295.87-7.057,1.13-7.882,7.607,15.517-2.573,30.082-4.985,46.315-7.675-12.186,12.4-28.677,8.52-40.845,15.789,13.252,3.694,25.584-.53,39.753-3.864-7.786,11.457-19.932,9.244-30.944,13.52,18.593,9.4,32.5-5.048,47.975-5.361l1.046,2.34q-11.095,5.477-22.2,10.964c5.433-.207,10.185-1.978,15.1-2.833,9.113-1.578,16.078-6.482,22.327-12.677,3.762-3.729,6.166-7.607,3.4-13.313-3.258-6.734-5.277-14.05-8.564-20.756-7.524-15.286-5.414-15.833-23.493-12.13-2.119.44-4.45-.009-6.54.52-6.852,1.713-13.646,3.685-20.455,5.559M602,310.287c6.433-4.375,12.839-8.777,19.3-13.108,31.091-20.827,65.071-36.446,98.86-52.422,7.524-3.568,14.866-7.531,22.134-11.593,1.478-.825,2.211-2.932,4.36-5.944-21.178.44-40.762.35-58.108,9.755-18.8,10.193-36.927,21.67-54.858,33.307-14.746,9.585-24.943,23.277-31.687,40.012M416.814,993.9l2.647.081c.872-4.841,1.973-9.665,2.56-14.543,2.459-20.245,9.433-38.615,22.942-54.386,5.864-6.846,9.223-14.739,7.524-23.723-2.725-14.4-6.772-28.466-15.1-40.893-2.647-3.956-6.1-7.406-10.581-12.74-9.343,50.053-5.846,98.362-9.994,146.2M360.39,694.043l.542-.046c-.716-8.52-1.6-17.053-2.129-25.588-1.073-17.375-3.114-19.079-20.573-16.56-.358.053-.726.134-1.09.152-5.185.224-7.1,2.367-7.773,7.911-1.928,15.9-4.872,31.684-7.689,47.466-1.211,6.787,2.9,20.02,9.306,22.037,3.487,1.085,8.7-2.985,13.1-4.824,1.671-.7,3.147-1.874,4.854-2.474,8.876-3.155,12.146-9.539,11.489-18.409-.238-3.195-.037-6.446-.037-9.665m425.288-479.9c5.653.843,11.3,1.658,16.941,2.519,14.407,2.2,29.448,2.529,43.084,6.975,39.8,12.982,78.37,28.977,113.3,52.3,6.892,4.6,14.032,8.841,21.051,13.236.2-2.036-.22-3.1-1-3.747-14.279-11.628-27.778-24.386-43.067-34.553-30.77-20.45-62.539-39.18-100.548-44.559-17.518-2.483-33.635,1.121-49.766,7.827M234.289,759.626c1.881-10.2,4.083-20.2,5.478-30.313,1.761-12.7,3.019-25.489,4.13-38.265.311-3.523,1.028-7.943-4.938-8.59-4.175-.456-8.608-.771-12.352-2.4-8.507-3.7-16.662-8.177-25.025-12.373-4.745,21.1,16.35,80.494,32.7,91.942m80.251-86.2a22.284,22.284,0,0,0-4.167.036c-10.168,2.395-19.895,6.743-30.971,4-5.167-1.273-4.158,2.941-3.737,6.33,2.762,22.324,5.277,44.676,8,67,.863,7.038,2.129,14.022,3.222,21.033l2.367-.027c12.132-31.757,26.145-63.056,25.282-98.371M743.66,277.464c-11.679,9.755-21.956,20.093-33.936,27.918-15.757,10.266-33.091,18.173-49.316,27.812-14.628,8.687-28.733,18.227-42.892,27.658-2.588,1.73-4.3,4.725-6.433,7.128,18.375-3.765,35.734-8.051,52.165-14.534,19.281-7.607,38.065-16.533,52.932-31.644,12.573-12.779,20.932-27.739,27.475-44.335M261.917,684.414c-7.965,2.738-8.03,8.947-9.066,14.292-1.557,8.063-2.79,16.192-3.737,24.333-1.992,17.016-4.25,34.016-5.369,51.086-.983,15.008,8.222,26.143,16.8,38.382,10.223-18.713,11.159-37.305,8.976-56.474-2.147-18.81-3.845-37.673-5.782-56.511-.5-4.887-1.165-9.755-1.817-15.107m347.8-272.305c-.578-.3-1.165-.592-1.753-.887-4.634,5.03-9.415,9.934-13.884,15.107-8.709,10.1-14.463,21.392-14.1,35.055a71.219,71.219,0,0,1-.7,7.478c-1.605,21.033-4.148,41.99.853,63.038,4.827,20.36,4.049,40.372-6.229,59.523-2.3,4.3-2.037,9.925-2.946,14.937.707.214,1.422.421,2.138.628,3.184-5.075,6.451-10.1,9.553-15.233,6.671-11.045,10.48-22.782,8.919-35.808-1.11-9.226-2.277-18.442-3.248-27.689-1-9.594-3.581-19.446-2.294-28.77a408.556,408.556,0,0,1,10.864-50.162c3.4-12.627,8.479-24.826,12.811-37.217M710.653,285.217a34.587,34.587,0,0,0-4.533,1.031c-19,8.141-37.606,17.344-57.061,24.243-25.575,9.073-40.588,28.449-55.18,47.859,18.842-9.271,37.909-18.739,57.052-28.054,22.409-10.9,43.708-23.195,59.722-45.079M237.061,36.432c17.978,23.831,107.757,94,124.2,97.367-35.23-41.077-74.855-75.087-124.2-97.367M65.328,345.28c-.679-8.76-4.745-14.946-10.379-16.461-4.974-1.345-12.3,2.547-16.123,8.867-7.764,12.795-7.689,26-.037,38.516,4.165,6.823,8.012,14.543,16.775,17.555,9.167,3.148,12.049,1.488,12.333-7.7.12-3.927.825-8.063-.137-11.754-1.789-6.805-3.359-14.246-7.432-19.688-2.781-3.712-9.664-4.465-14.619-6.508,4.6-6.823,6.331-7.15,19.62-2.824M757.961,936.654c-4.735-1.978-9.655-2.529-11.792-5.2-5.6-7.029-8.72-8.311-16.316-3.5-9.443,6-18.591,12.463-28.2,18.182-6.157,3.666-4.478,9.172-4.846,14.318-.367,5.075,3.166,6.312,7.3,7.729,8.9,3.043,8.8,3.21,18.353,1.237,6.753-1.4,13.591-2.434,20.335-3.883a25.878,25.878,0,0,0,5.442-2.528c-1.056-1.766-1.679-4.286-3.258-5.147a103.783,103.783,0,0,0-12.012-4.878c-.964,10.158-5.139,13.565-14.555,12.5-4.891-.555-8.709-2.8-9.351-7.558a9.234,9.234,0,0,1,7.3-10.6c4.46-1.041,9.369-.394,14.068-.2,3.7.161,7.378.761,11.884,1.255-4.158-9.979-13.683-2.349-18.711-7.586,10.47-6.257,22.473-2.95,25.419,6.4a75.886,75.886,0,0,0,4.818,12.417c3.4,6.527,2.689,8.813-4.707,10.266-8.919,1.748-17.922,3.093-28.283,4.85,13.236,6.832,37.6-.654,50.867-16.551-16.71-7.351-16.922-7.7-13.765-21.535m58.273,13.467a65.156,65.156,0,0,0-8.792-5.075c-5.037-1.978-6.864-4.868-4.516-9.907a17.9,17.9,0,0,0,1.671-5.083c.688-5.128-2.854-11.959-6.617-12.229-5.7-.4-9.728,2.393-11.976,7.54-.422.977-.514,2.089-.955,3.058-1.713,3.756-2.937,7.872-5.36,11.153-4.872,6.607-4.827,9.226,2.734,11.816,6.525,2.232,11.288,5.11,14.5,11.664,3.661,7.455,8.351,7.8,16.481,5.182a38.269,38.269,0,0,1,15.72-1.946c6.112.709,7.319-1.766,6.671-6.446-.377-2.726-.982-5.971-2.744-7.862-3.569-3.8-2.946-6.006.634-9.467,1.514-1.462,1.44-6.025.266-8.258-1.624-3.075-5.084-3.613-8.434-1.165-2.376,1.73-5.028,3.111-8.535,5.253,1.688-12.194.257-15.008-9.865-20.36a39.2,39.2,0,0,1,1.868,7.415c.321,7.862-1.935,16.452,9.719,19.455,1.761.456,3.239,7.759,2.248,11.18-1.129,3.9-5.662,3.228-9.424,1.695-3.34-1.369-6.984-2.008-10.4-3.236-11.333-4.108-15.583-15.941-9.187-26.027.779-1.228,3.194-1.453,5.808-2.547-8.72,20.164-.422,24.171,18.492,24.2M78.226,1026.793c0,6.085.193,12.417-.045,18.748-.276,7.137,3.426,9.037,10.094,8.984,5.433-.046,10.857,1.354,16.316,1.826q12.471,1.075,25,1.7c4.34.214,6.305-1.964,7.076-6.347,2.946-16.873,1.753-18.156-16.35-19.77-13.737-1.217-27.406-3.309-42.094-5.138m-18.9,104.378,3.083.081q1,8.338,2.024,16.676l2.918-.431c-.431-4.815-.917-9.61-1.266-14.435-.321-4.456-.634-8.921-.688-13.388-.054-3.908.5-7.844.257-11.745-.092-1.462-1.386-3.793-2.579-4.108a35.582,35.582,0,0,0-26.282,2.312c-7.786,3.908-6.81,10.248-6.322,16.505.99,12.793,4.8,24.547,14.7,33.828-.22-7.576-3.469-15.036,1.028-24.3,4.148,9.083,7.534,16.479,10.911,23.875.743-.233,1.487-.466,2.221-.7ZM853.177,876.15c-.779.036-1.557.072-2.336.1-2.414,9.557-4.552,19.186-7.3,28.646-4.432,15.206-2.336,28.833,9.223,40.416a84.319,84.319,0,0,0,7.258,5.854c1.45-2.662,3.854-5.218,4.193-8.014,1.2-9.861,1.909-19.8,2.414-29.721.726-14.327-7.883-25.255-13.452-37.273m-80.724-674.7c47.7-17.716,90.464,1.022,133.9,16.309A162.9,162.9,0,0,0,880.7,203.848c-18.344-7.692-35.7-17.976-55.9-20.952-20.62-3.031-39.166-.359-52.335,18.561M536.149,386c-1.09-2.9-2.22-7.89-4.7-12.113-4.643-7.911-14.482-9.136-21.455-3.031a6.49,6.49,0,0,0-1.763,4.59c.019.592,2.515,1.444,3.965,1.649,3.6.5,7.406.207,10.81,1.237,1.89.583,3.138,3.174,4.681,4.868a24.838,24.838,0,0,1-5.5,3.272c-2.689.79-6.073.044-8.351,1.327-6.121,3.479-13.958,25.875-11.3,32.07a6.292,6.292,0,0,0,5.369,2.681c14.664-3.47,28.029-20.109,28.236-36.552M375.941,49.575c13.792,7.782,28.029,14.9,41.24,23.526,13.5,8.824,25.988,19.123,39.588,29.272-.311-14.964-6.314-26.654-18.775-34.06-18.831-11.18-39.9-16.406-62.053-18.739M695.85,274.693q-.729-1.492-1.44-2.985c-17.325,6.886-35.1,12.875-51.812,20.961a168.175,168.175,0,0,0-33.275,21.975c-7.46,6.177-13.361,14.515-16.481,26.942,7.663-7.047,13.058-12.749,19.2-17.528a307,307,0,0,1,60.348-36.523c8.085-3.721,15.647-8.52,23.456-12.839m-667.9,803.049a35.531,35.531,0,0,1,.229,4.295c.266,8.768.578,9.055,9.424,8.159,5.084-.511,10.14-1.5,15.225-1.649,14.17-.421,14.17-.288,11.637-14.506-.311-1.757-.367-3.577-.825-5.3-1.157-4.322-3.965-6.886-8.709-6.455-7.616.7-15.27,1.345-22.777,2.7-1.671.3-3.413,3.245-4.038,5.3-.7,2.3-.165,4.958-.165,7.455m419.319-78.79c-9.343-25.382-9.343-25.382-5.772-32.994,4.5,7.388,9.032,14.865,13.591,22.343l2.23-1.237a63.6,63.6,0,0,1-2.716-8.93q-2.18-14.188-3.708-28.449c-.156-1.407,1.246-4.24,1.909-4.24,1.982.018,4.643.574,5.762,1.937,1.5,1.81,1.367,4.832,2.7,6.846a36.107,36.107,0,0,0,5.617,5.559c.7-.628,1.386-1.264,2.083-1.891-4.506-8.616-9.011-17.223-14.472-27.658-6.852,7.881-14.015,14.175-18.666,21.921-7.59,12.641-2.258,33.8,11.453,46.791m553.059-597c-8.253-28.492-51.152-70.075-77.533-75.706,25.035,24.441,51.289,50.073,77.533,75.706M387.27,1028.263c-18.593-1.013-35.954-1.909-53.307-2.922-4.432-.26-6.852.923-6.635,5.872.3,6.939.073,13.9.073,19.715,7.8-3.058,14.435-6.169,21.41-8.24,8.332-2.483,16.912-4.223,25.447-5.98a18.378,18.378,0,0,0,13.012-8.445M668.184,224.414c.339.879.679,1.748,1.018,2.627,25.181-2.179,48.71-12.346,73.872-15.842-8.424-6.734-17.683-9.449-27.539-6.464-12.123,3.685-23.96,8.329-35.762,12.965-4.12,1.614-7.745,4.438-11.59,6.715M847.8,717.443c25.483-1.521,51.075-24.754,51.793-49.992q-27.159,26.211-51.793,49.992m75.4-62.528c-6.708,13.8-11.939,26.207-18.61,37.826-6.984,12.139-18.977,19.4-30.935,26.663a67.568,67.568,0,0,0,16.766-6.312c12.443-6.867,24.75-14.22,31.843-26.951,5.084-9.108,9.268-18.748.934-31.227m-540.25-44.86c1.257.161,2.524.332,3.781.493,1.542-5.594,3.965-11.106,4.478-16.793,1.973-21.6-13.186-35.118-25.181-50.118,1.009,23.481,18.857,42.294,16.922,66.418m-112.7,26.978c3.606-7.675,8.653-13.388,8.409-18.882-.679-15.25-1.8-30.716-7.267-46.272-8.047,22.755-10.544,45.833-1.148,65.154m99.622-19.241c6.562-16.632,5.313-27.165-3.093-38.731-4.415-6.1-8.507-12.408-12.912-18.513a58.877,58.877,0,0,0-5.24-5.64l-2.468,1.345c5.065,20.611,15.243,39.4,23.713,61.541M761.334,908.635c-3.8-9.612-10.92-10.633-18.426-10.041-5.4.431-8.085,5.477-8.709,13.046-.5,5.99,2.762,6.922,7.663,7.818,7.873,1.426,15.572,3.747,23.358,5.6a36.106,36.106,0,0,0,8.469,1.479,6.708,6.708,0,0,0,4.24-2.726c.349-.431-.945-2.483-1.869-3.452-5.075-5.361-11.324-7-18.8-6.671-9.2.412-10.984-1.918-10.847-10.472,4.754,1.73,9.838,3.577,14.911,5.416M332.435,566.363c-.789,22.638,14.812,41.188,15.7,65.225,11.691-16.632,6.185-38.229-15.7-65.225m-37.881,65.511c3.286-9.28,5.36-15.807,3.114-23.23-2.166-7.164-3.368-14.605-4.938-21.94-3.047-14.273-3.038-14.282-7.654-19.259-4.872,22.191-1.211,42.542,9.471,64.427m15.977-64.687c-.394,3.291-1.2,5.1-.688,6.42,7.672,19.42,15.517,38.776,24.043,59.954,3.845-12.058,4.653-22.28-1.009-32.2-5.3-9.3-10.984-18.389-16.637-27.488a67.7,67.7,0,0,0-5.709-6.679M125.307,105.629c0-11.215-1.065-21.284.294-31.036,1.386-9.934,5.148-19.554,7.864-29.309-19.418,10.4-29.255,43.121-8.158,60.345M240.182,653.67c-10.1-2.976-20.042-6.105-30.127-8.672-1.8-.456-5.606,1.032-6.056,2.393-.726,2.188-.33,5.872,1.193,7.4,3,2.985,7.085,4.949,10.745,7.3,15.334,9.817,16.195,9.539,24.245-8.419M713.506,933.344c-9.049-6.877-9.187-7-14.911-1.085-5.24,5.4-11.212,7.5-18.666,5.5-3.426-.913-6.965-1.345-9.489-1.826,2.2,6.085,3.835,12.507,6.873,18.209,1.6,2.976,5.671,4.689,8.617,6.966,1.523-2.51,4.222-4.976,4.34-7.558.311-7.15,4.478-10.964,10.3-13.87,3.835-1.918,7.708-3.784,12.938-6.347M877.447,678.89l-1.38-2.8c-5.983,2.089-13.287,2.725-17.693,6.563-10.168,8.857-18.932,19.259-28.255,29.04,20.639-4.859,35.871-16.38,47.324-32.805M451.269,538.633c1.129-.323,2.267-.654,3.395-.986-1.992-9.979-3.4-20.118-6.24-29.864-1.165-4.007-5.094-7.441-8.3-10.607-1.157-1.13-4.038-1.193-5.874-.735-.733.189-1.313,3.183-1.028,4.734,2.6,14.1,7.873,26.978,18.051,37.459M238.327,449.72c-16.61,1.928-27.548,21.679-28.154,44.335,14.352-12.229,21.162-27.982,28.154-44.335m417.244,552.444c16.506-3.443,28.236-10.929,31.531-27.524-16.451-.806-30.506,11.463-31.531,27.524M423.008,507.154c-3.222,1.686-5.791,2.994-8.314,4.366-4.332,2.349-4.231,4.824-.835,8.266,5.065,5.147,9.589,10.8,14.463,16.126,3.893,4.249,7.974,8.329,11.967,12.475-.413-16.04-9.3-27.865-17.285-41.229M217.038,131.292c-24.373-16.263-41.421-38.319-53.556-64.337,1.285,26.015,26.8,56.771,53.556,64.337m574.02,853.515c-2.864-5.755-5.075-10.939-7.942-15.735-2.959-4.949-6.892-4.385-10.791-.744-6.852,6.39-5,15.556,4.846,21.975,2.074,1.354,5.634,2.434,7.58,1.6,2.442-1.065,3.918-4.24,6.305-7.091M315.722,452.331c4.689,16.126,11.479,29.353,18.336,42.542a1.723,1.723,0,0,0,.688.816c1.918.806,3.863,1.543,5.8,2.3.229-1.838.955-3.784.6-5.513-2.873-14.013-10.214-25.863-19.2-36.84-.964-1.184-2.909-1.6-6.229-3.3m-16.6,117.96c-.983.332-1.964.654-2.946.986l13.547,66.086,3.845-.726c5.772-24.1-10.388-44.094-14.444-66.345m64.3-71.842c-.67-17.088-8.9-28.538-21.841-39.825.174,18.075,4.295,31.684,21.841,39.825M802.539,716.529c17.207-1.946,28.029-11.637,35.385-25.544a30.1,30.1,0,0,0,1.761-6.706c-2.946.663-5.917,1.264-8.828,2.054-.578.152-.917,1.065-1.4,1.6-6.258,6.93-12.481,13.905-18.831,20.765-2.541,2.738-5.377,5.237-8.085,7.837M267.482,453.315c-10.9,7.254-17.224,15.7-16.628,27.8.1,2.13,2.18,4.159,3.34,6.238,2.024-1.246,4.763-2.026,5.947-3.8,5.8-8.76,9.572-18.182,7.342-30.232M692.5,1009.848c7.451-6.473,13.287-10.786,18.133-15.994,4.662-4.993,1.753-11.867-4.8-12.857-4.1-.609-12.939,5.962-13.236,10.365-.367,5.308-.092,10.66-.092,18.488m-214.594-524.2c6.479-12.641,1.5-23.57-4.643-34.212-.891-1.534-3.1-2.34-4.7-3.487-.872,1.81-2.3,3.56-2.534,5.451-1.514,12.544,6.166,21.975,11.875,32.253M402.374,604.637c5.369-6.975,5.442-12.9,3.1-18.73-2.79-6.93-6.029-13.709-9.433-20.386-6.359-12.408-12.967-24.683-19.5-37-1.009-1.909-2.211-3.73-3.321-5.594-.779.368-1.542.744-2.312,1.112,5.3,11.171,10.388,22.449,15.977,33.478,7.286,14.363,15.527,28.34,15.491,47.115M230.822,1139.345l-.789.027c.238,4.958.184,9.951.881,14.847.248,1.766,2.312,3.282,3.552,4.913,1.468-1.369,3.543-2.483,4.3-4.159,4.45-9.827,2.68-19.527-1.414-29-.5-1.138-2.35-2.86-2.781-2.662-1.44.663-3.46,1.978-3.582,3.21a124.505,124.505,0,0,0-.174,12.83m37.716-475.761c-.137-7.109-3.286-10.462-9.443-10.1-3.387.2-12.1,10.345-10.214,12.811a24.052,24.052,0,0,0,11.571,8.033c3.835,1.121,8.186-5.5,8.085-10.741M166.462,498.341c10.581-6.867,26.8-31.774,27.76-41.915-15.326,9.916-22.089,24.915-27.76,41.915m622.87,413.675c.587-6.589-8.149-14.658-14.242-14.283-3.156.189-8.012,1.978-8.8,4.169a6.235,6.235,0,0,0,.561,5.429,6.522,6.522,0,0,0,4.66,3.007c3.038.645,5.662,3.8,8.608,4.025,3.239.233,6.644-1.614,9.214-2.349M188.574,493.336c11.4-13.583,20.234-26.377,26.494-40.757-14.746,9.163-25.309,20.9-26.494,40.757m92.143,162.786c-.587.663-1.165,1.318-1.744,1.978,2.918,3.043,6.093,8.867,8.72,8.643a61.811,61.811,0,0,0,26.447-8.427l-.523-2.2Zm-79-32.268a81.87,81.87,0,0,1,10.93-48.8c-19.969,18.838-22.124,37.494-10.93,48.8m95.815-134.78c5.148-15.974.634-28.395-11.948-34.85,1.808,12.058,2.725,23.92,11.948,34.85m-97.012,81.1c-16.506,8.876-24.392,24.772-17.408,40.3,5.487-12.722,11.269-26.1,17.408-40.3m473.9,360.048.137,2c5.414-.672,11.6.027,16.05-2.358,5.855-3.129,10.553-8.5,15.279-13.341,1.266-1.292.808-4.187,1.148-6.347-2.477.645-5.35.726-7.342,2.061-2.772,1.874-4.561,5.119-7.333,7-5.791,3.927-11.939,7.351-17.94,10.983m153.636,71.77a26.626,26.626,0,0,0-4.432,1.775c-8.46,5.308-16.6,9.539-27.465,4.967-5.874-2.475-11.4.574-12.146,8.813,16.894.636,32.1-2.636,44.048-15.556M182.744,548.98c-15.425,8.24-23.409,19.715-30.053,32.213-1.183,2.224-.606,5.352-.983,9.728,10.838-14.642,20.17-27.255,31.036-41.941M446.6,488.43q7.887,17.9,15.783,35.8c.779-.341,1.57-.682,2.359-1.013-3.661-12.627-.623-28.135-18.143-34.786m-190.93,97.519c-.835-.036-1.671-.081-2.505-.117-8.72,13.412-10.425,26.726-3.818,41.411,2.35-15.34,4.34-28.322,6.322-41.3M837.041,972.2l-9.69,8.1c5.065,3.139,10.058,6.4,15.3,9.226.5.269,3.625-2.16,3.737-3.479.523-6.006-4.139-12.668-9.343-13.844M711.318,700.4c-5.011-13.009-15.9-20.853-26.833-28.672A52.316,52.316,0,0,0,711.318,700.4M236.149,481.78c8.891-8.841,12.085-19.151,14.416-30.884-12.3,7.593-16.9,17.375-14.416,30.884m-110.882,8.015c-9.865,5.1-19.281,10.65-26.4,22.212,14.527-3.021,23.309-9.28,26.4-22.212M482.584,386.01c-.9.09-1.789.189-2.689.288-2.336,20.765-.587,28.888,9.773,36.5-2.616-13.6-4.854-25.194-7.084-36.786M192.623,557.738c-12.031,9.8-22.244,20.773-24.75,36.75,6.506-13.377,21-21.571,24.75-36.75m84.939-100.98c-5.294,9.638-6.892,17.887-2.367,26.458.651,1.237,2.633,1.918,4.148,2.51.294.117,1.827-1.369,1.808-2.08-.229-8.606,2.744-17.59-3.581-26.889m-112.525,23.75c-.587-.628-1.165-1.255-1.753-1.883-6.322,4.707-12.783,9.253-18.876,14.237-1.5,1.217-1.789,3.855-2.624,5.845,2.579.072,5.855,1.175,7.616.037a38.34,38.34,0,0,0,15.637-18.237m476.6,493.758c4.964-.44,9.131-2.116,11.406-.761,7.809,4.661,11.7.17,16.35-4.788-14.848-5.523-18.565-4.9-27.76,5.55M120.142,544.74c9.323-7.853,16.92-14.243,25.454-21.439-13.563-1.13-21.914,5.819-25.457,21.438M668.721,957.1c-9.489-13.484-11.489-13.808-23.2-4.438,6.3,7.181,14.343,4.42,23.2,4.438M109.569,529.111c1,.913,2,1.838,3,2.752,6.763-6.085,13.6-12.095,20.17-18.38a4.325,4.325,0,0,0-.311-4.33,4.515,4.515,0,0,0-4.377-.189c-6.313,6.563-12.352,13.388-18.482,20.146m358.185-33.453a26.85,26.85,0,0,0-6.414-22.073c-1.129-1.416-4.075-1.444-6.185-2.107-.257,2.466-1.643,5.629-.578,7.28,3.413,5.317,7.736,10.078,13.178,16.9m-86.462,4.322c-3.524-8.714-2.515-19.913-14.261-24.772-.7,11.826,5.947,18.819,14.261,24.772M723.308,993.71c-4.405,6.006-7.942,10.283-10.745,14.99-.789,1.327-.009,4.438,1.184,5.693.726.761,3.993.081,5.5-.879,6.8-4.348,7.644-7.759,4.049-19.805m17.082,77.815c-1.358-.134-2.725-.269-4.083-.412-1.339,6.419-2.909,12.811-3.835,19.285-.174,1.264,2.166,2.869,3.34,4.313,1.523-1.237,4.276-2.385,4.368-3.712.459-6.464.212-12.973.212-19.474m-2.534-65.359c1.869-5.209,3.426-8.088,3.845-11.117.321-2.385.028-6.222-1.44-7.109a9.123,9.123,0,0,0-8.085-.062c-1.487.977-1.89,5.119-1.165,7.342,1.037,3.174,3.561,5.882,6.852,10.954M96.419,493.015c.761.834,1.532,1.674,2.294,2.519,5.579-4.035,11.269-7.943,16.61-12.256.853-.682.174-3.183.212-4.841-1.557-.009-3.426-.583-4.634.053-6.369,3.38-11.571,7.943-14.482,14.524M150.524,58.809l-2.937.323c-1.266,10.65-.816,20.926,8.544,29.318q-2.794-14.82-5.606-29.641M104.3,460.659c-5.662,6.9-11.067,13.511-17.785,21.705,18.244-9.207,21.629-13.388,17.785-21.705M797.09,987.372c-.559,1-1.129,2.008-1.7,3.012,2.734,2.08,5.4,4.276,8.253,6.2a41.329,41.329,0,0,0,5.332,2.653c.934-2.13,2.734-4.357,2.524-6.39-.212-1.937-2.211-4.788-3.965-5.246-3.27-.843-6.937-.242-10.442-.242m-27.539,5.906c-1.44,4.088-3.387,7.334-3.469,10.607-.055,2.268,2.477,4.59,3.854,6.895,1.713-1.407,3.937-2.492,5.056-4.26,3.581-5.7,1.57-9.935-5.442-13.236m-86.068,3.075c-3.413,2.259-6.975,3.712-9.049,6.3-1.339,1.695-.523,5.039-.679,7.639,2.192-.4,4.763-.233,6.506-1.327,4.167-2.6,7.342-5.99,3.222-12.615M475.315,426.472c-1.339,9.387,1.3,17.249,8.387,24.745,1.23-10.373-2.491-17.967-8.387-24.745M81.158,456.481c8.544-4.59,14.463-10.543,11.14-21.275q-5.575,10.637-11.14,21.275M86.8,393.542l-2.826-.511c-1.652,7.038-3.295,14.066-5.313,22.719,9.589-6.846,10.589-14.094,8.139-22.212M780.825,690.322c7.534,9.548,7.607,9.594,16.71,9.836-4.615-11.054-4.615-11.054-16.71-9.836M89.509,417.336l-2.817-.485q-2.959,9.186-5.917,18.38c.853.26,1.713.529,2.569.8,4.928-5.253,7.474-11.314,6.166-18.693m662.335,658.758c-.606-.009-1.211-.018-1.817-.018-.789,4.716-1.789,9.423-2.23,14.175-.111,1.264,1.5,2.681,2.312,4.026,1.44-1.273,4.167-2.627,4.083-3.8a128.971,128.971,0,0,0-2.35-14.381m4.221-91.172c-3.4,3.326-5.57,6.743-2.68,11.457.367.6,1.77.592,2.7.87.7-3.523,1.44-7.047,2.024-10.589.045-.332-.934-.825-2.046-1.739M674.657,912.1c-6.782-3.461-11.288-2.017-11.489,6.356q5.74-3.174,11.489-6.356m175.688,42.514c-.808,11.745-.808,11.745,8.644,10.8-2.959-3.694-5.506-6.877-8.644-10.8M429.3,983c.028,11.959.726,13.44,9.589,19.25-3.479-6.975-6.073-12.185-9.589-19.25m298.747-27.22c-3.524-1.623-5.4-3.272-6.772-2.941-1.973.475-3.581,2.385-5.341,3.685,1.588,1.264,3.22,3.56,4.763,3.514,1.936-.071,3.8-2.071,7.35-4.26M658.461,924.92c-.045.986-.092,1.978-.146,2.977,3.965.412,7.929.825,12.769,1.336-3.074-9.727-8.378-4.581-12.627-4.313M101.814,451.012c-1.018-.539-2.046-1.065-3.074-1.605q-3.62,6.671-7.25,13.341,1.474.767,2.937,1.534,3.7-6.63,7.387-13.269M778.192,699.073c-.643.189-1.285.376-1.936.555.394,1.928.156,4.429,1.313,5.649,1.744,1.826,4.478,2.738,6.781,4.053a56.487,56.487,0,0,0-2.744-6.437,23.974,23.974,0,0,0-3.413-3.819M389.8,492.056c3.7,8.672,3.7,8.672,11.012,8.85M676.02,919.9c.726.924,1.44,1.847,2.166,2.78q4.1-3.3,8.2-6.581c-.551-.672-1.1-1.345-1.652-2.008l-8.72,5.81m128.5-231.206-2.8,2.116a26.014,26.014,0,0,0,3.533,3.254c.276.189,1.514-1.013,2.312-1.578-.954-1.184-1.909-2.376-3.038-3.793" transform="translate(12337.598 818.939)"/><path d="M67.113,310.486a38.113,38.113,0,0,1-.948-5.952c-.036-20.915-.772-41.865.256-62.732a316.468,316.468,0,0,1,13.108-77.19c2.889-9.429,4.766-19.163,7.21-28.733.256-.991,1.259-1.788,1.909-2.669.839,1.076,2.408,2.152,2.4,3.222-.048,6.779.17,13.655-.833,20.324-4.539,30.168-9.831,60.227-14.105,90.425-2.65,18.72-3.952,37.622-5.928,56.439-.237,2.3-.881,4.572-1.332,6.858-.584,0-1.162.006-1.738.006" transform="translate(12883.777 1997.069)"/><path d="M77.776,283.08c-.462-3.5-1.349-7.01-1.307-10.5.389-32.509.651-65.023,1.629-97.515.286-9.6,2.657-19.146,4.274-28.68.189-1.118,1.635-2.025,2.5-3.028.639,1.332,1.885,2.682,1.83,3.988-.711,17.206-1.7,34.4-2.419,51.6-.893,21.322-1.548,42.655-2.425,63.972-.273,6.633-.948,13.254-1.444,19.881-.876.091-1.754.189-2.639.28" transform="translate(12966.334 2048.623)"/><path d="M119.3,297.642c-5.308-24.732-11.039-49.38-15.8-74.216-3.873-20.2-7.229-40.552-9.582-60.972-1.349-11.734-.243-23.754-.243-37.057,1.04,2.3,1.946,3.514,2.135,4.833,1.52,10.536,2.815,21.109,4.341,31.645q5.463,37.747,11.083,75.475c1.635,11.016,3.2,22.051,5.15,33.013,1.271,7.132,3.259,14.134,4.746,21.231a27.926,27.926,0,0,1,.055,5.617c-.626.145-1.252.286-1.879.431" transform="translate(13171.28 1957.365)"/><path d="M79.426,127.443c-.25,2.6-.31,5.1-.748,7.531-.991,5.453-2.079,10.889-3.326,16.288-.28,1.2-1.4,2.219-2.133,3.32-1.095-1.125-3.247-2.4-3.113-3.344,1.168-8.171.535-16.963,7-23.547.25-.25.887-.116,2.322-.25" transform="translate(12913.688 1843.795)"/><path d="M79.787,134.832c.8,10.42,1.952,20.981-.876,31.372-2.31-10.488-.31-20.878.876-31.372" transform="translate(12975.118 1904.864)"/><path d="M148.086,65.8c.206,9.253-4.656,13.616-12.332,12.438a9.49,9.49,0,0,1-3-.7c-19.637-10.536-41.12-9.2-62.315-9.8-5.839-.155-11.694.035-17.506-.405a16.624,16.624,0,0,1-15.7-14.913c-.707-9.27,3.658-17.058,12.4-18.179C61.8,32.68,74.483,30.981,86.4,32.844c17.73,2.78,35.634,6.731,50.872,17.627,5.881,4.209,9.676,9.556,10.814,15.333m-56.8-12.721c9.995.474,17.231-.069,23.672-7.055-9.365-2.561-15.988-.19-23.672,7.055M57.873,39.554c-10.8-.051-13.927,2.734-13.9,12.6,6.1-2.794,11.634-5.613,13.9-12.6m36.5,2.208C82,40.5,78.406,42.987,74.827,55.447c7.141-4.993,12.617-8.831,19.541-13.685M76.379,38.44c-10.84,1.165-16.187,6.08-18.968,17.3l18.968-17.3m36.892,17.153c7.1,2.8,12.28,2.811,17.455-1.19-5.735-4.372-10.952-3.951-17.455,1.19m25.992,13.592c-4.071-7.416-4.071-7.416-12.176-5.976,4.955,2.435,8.572,4.207,12.176,5.976" transform="translate(12650.642 1072.58)"/><path d="M71.137,63.861C53.921,65.093,39.955,66.083,26,67.1c-4.491.324-8.882.657-11.53-4.26-2.852-5.288-.278-9.753,3.019-12.975,3.825-3.742,8.53-7.41,13.515-8.958a333.809,333.809,0,0,1,36.329-8.824c5.3-1.009,11-.074,16.5.214,5.14.259,10.272,1.257,15.392,1.176,6.965-.112,13.29.361,16.735,7.715,3.871,8.279,3.714,16.54-1.315,24.033-1.287,1.927-5.566,2.871-8.329,2.631C93.533,66.715,80.79,65,71.131,63.862m3.39-16.9c.269.083.537.176.806.259-.343,0-.695,0-1.047-.009-2.816-6.5-8.7-5.918-14.689-4.891l14.93,4.639M39.894,45.311C47.868,48.839,53.712,51.422,59.546,54c.314-.74.629-1.491.943-2.241C55.4,47.247,49.977,43.585,39.9,45.314m56.012,4.732C94.831,41.349,91.9,38.6,85.07,40.59c3.009,2.621,6.011,5.243,10.844,9.456m14.642,1.611c.259-8.474.24-8.474-6.418-10.6,2.324,3.835,4.372,7.215,6.418,10.6m-88.1,3.363,1.54,3.676,7.017,4.149-2.169-4.859ZM42.194,52.17c-1.278-.269-6.993-2.829-8.015-2.829-.416,0,1.484,2.409,1.067,2.829.992.3,8.117,5.742,9.126,5.815.416.028,1.548-1.6,2.252-2.252" transform="translate(12455.45 1066.98)"/><path d="M14.694,63.612c2.782-3.039,4.315-4.7,6.22-6.8A19.346,19.346,0,0,1,15.4,54.861c-.612-.46-.4-3.6.23-3.909,9.118-4.527,18.094-9.623,27.7-12.8,6.1-2.021,13.194-1.072,19.84-1.48,4.909-.3,8.571,1.525,12,5.263,3.482,3.792,8.187,6.432,11.927,10.031,1.462,1.4,1.746,4.031,2.57,6.1A32.283,32.283,0,0,1,83.8,58a47.213,47.213,0,0,1-5.972-1.994c-3.473-1.108-5.954-1.3-8.967,2.392-6.584,8.1-13.132,8.153-20.123.355-3.881-4.315-6.965-3.146-11.068-1.3-6.593,2.95-12.725,7.647-22.986,6.165" transform="translate(12469.226 1109.541)"/><path d="M100.418,49.844c-3.4,1.115-5.069,1.662-7.577,2.489,8.882,6.422,17.463,5.539,26.909,2.807-3.381,3.014-6.76,6.019-11.2,9.98,4,.873,6.9,1.5,10.768,2.347-4.826,6.253-10.693,5.474-16.112,3.54a53.79,53.79,0,0,1-13.7-7.445c-4.394-3.268-7.126-3.615-11.152.883-5.117,5.718-12.806,6.91-16.843,2.853-2.868-2.882-4.066-7.435-6.347-11.887a52.809,52.809,0,0,1-8.826,2.751,43.61,43.61,0,0,1-8.872-.451c2.122-2.113,3.962-4.647,6.422-6.225a117.764,117.764,0,0,1,11.981-5.943c-3.07-1.013-5.163-1.7-9.275-3.051,20.2-8.762,36.1-2.207,53.835,7.351" transform="translate(12649.342 1122.22)"/><path d="M68.278,61.424c8.02-7.316,17.357-12.762,28.447-13.477,20.923-1.345,41.811-.552,62,6.027,5.139,1.672,10.554,3.579,14.711,6.829a24.229,24.229,0,0,1,7.553,11.519c1.639,5.346-2.1,9.347-7.794,8.8-17.03-1.63-15.518-2.2-30.513-11.183-15.1-9.053-49.118-13.01-65.795-6.974a46.461,46.461,0,0,1-7.648,1.463l-.957-3" transform="translate(12900.176 1195.439)"/><path d="M194.838,93.315c-4.188-2.143-8.548-4.015-12.513-6.511-3.572-2.258-6.688-5.247-10.049-7.85-10.263-7.915-21.317-10.031-34.123-6.61-12.9,3.448-26.093,5.977-39.708,2.647-7.43-1.822-9.892-4.861-6.068-11.338a20.472,20.472,0,0,1,9.122-8.128c9.467-3.859,19.32-5.723,29.7-2.775,5.608,1.592,11.61,1.74,17.349,2.963C171.454,60.6,183.517,69.739,196.094,91.4l-1.254,1.921" transform="translate(13079.367 1226.701)"/><path d="M170.35,80.383c-15.341,4.446-25.994,14.31-36.255,25.161-11.588,12.229-32.243,7.029-38.613-8.849-3.693-9.2-7.254-18.759-16.416-24.511C77.94,71.473,77.6,69.5,76.891,68.1c1.765-.129,4.134-1.066,5.192-.269,6.579,4.984,13.781,4.342,20.611,1.881,5.114-1.846,8.677-1.03,12.022,2.687s6.657,4.975,11.857,2.869c3.025-1.222,7.558-.494,10.755.882,8.763,3.778,17.274,6.726,26.869,2.9,1.618-.641,4.083.832,6.154,1.324M141.584,91.325c-8.832.935-17.144,3.467-24.814,2.166-7.843-1.335-15.054-6.423-23.808-10.452,17.325,26.486,32,28.819,48.624,8.286" transform="translate(12968.434 1356.7)"/><path d="M90.42,66.636c-7.3,2.847-14.581,6.9-20.385-1.8,9.476-3.572,18.537-7.728,28.021-10.417,21.518-6.1,28.164.565,39.264,14.224,2.007,2.464,2.582,6.1,3.815,9.193-.666.383-1.333.757-2,1.13-2.806-2.6-5.613-5.2-8.719-8.077-3.273,3.615-6.137,7.236-9.476,10.368-4.864,4.563-9.959,8.761-17.546,5.9C95.766,84.3,91.63,79.107,91.321,70.89a27.555,27.555,0,0,0-.9-4.255m28.28.575a22.452,22.452,0,0,0-2.556,3.705c-1.566,4.93-4.68,8.693-9.959,7.761-5.7-1.008-5.521-5.413-3.88-10.126.264-.784-2.135-2.48-3.3-3.752-1.024,1.54-2.765,2.99-2.939,4.614-.584,5.511,6.1,13.249,11.163,13.416,6.278.216,11.741-6.338,11.476-15.623" transform="translate(12915.293 1233.937)"/><path d="M105.545,67.92c-5.422,1.313-10.145,2.467-14.857,3.615,23.787-25.7,48.682-15.345,65.012,1.42,3.124,3.2,6.777,5.893,11.28,9.762-2.4.684-5.271,2.246-8.059,2.095a13.424,13.424,0,0,1-7.615-3.346c-5.422-4.872-9.08-2.779-13.038,1.97-4.217,5.068-9.532,7.982-16.606,7.491-12.16-.843-17.75-6.958-16.738-19.136.107-1.261.4-2.5.622-3.869m12.735,13.544c-3.464-2.774-3.824-7.464-4.217-11.317-7.261,5.485-3.551,10.517,1.224,13.287,8.068,3.949,11.014,2.334,15.345-2.884,3.346-4.021,3.346-4.8-.044-10-3.532,6.009-2.913,12.86-12.312,10.917" transform="translate(13076.659 1263.999)"/><path d="M104.628,125.307c-13.875,6.467-24.549,1.151-23.122-10.2,2.572-20.472,9.413-39.968,15.626-59.533.759.043,1.525.078,2.283.121.244,2.013.958,4.105.645,6.031C97.654,76.7,94.753,91.6,92.617,106.613c-1.159,8.122-.862,16.3,12.01,18.694" transform="translate(13002.889 1262.897)"/><path d="M42.247,118.8c.006,5.491-3.49,9.357-8.627,9.539-5.035.176-9.764-4.444-9.818-9.595s3.976-10.457,8.013-10.543c5.5-.128,10.427,4.876,10.433,10.6m-5.375.6c-1.94-2.839-3.32-4.858-4.705-6.876-1.49,1.94-3.831,3.733-4.183,5.861-.237,1.429,2.074,3.824,3.793,4.754.687.37,2.875-2.043,5.094-3.739" transform="translate(12534.187 1686.89)"/><path d="M23.7,125.41c.152-8.627,2.579-11.637,9.308-11.509,5.064.1,8.025,3.131,8,8.208a10.826,10.826,0,0,1-10.793,11.083c-5.468-.025-6.633-1.41-6.517-7.782m12.39-2.25c-1.915-2.547-3.089-5.611-4.539-5.758-3.787-.365-3.92,3.539-4.59,6.1-.693,2.663.772,5.356,3.508,4.9,1.879-.3,3.362-3.009,5.624-5.241" transform="translate(12533.146 1732.313)"/><path d="M32.7,120.867c-4.548-.1-8.706-5.308-8.517-10.676.158-4.566,3.557-7.222,8.976-7.034,4.9.17,9.2,4.705,8.931,9.436-.237,4.238-4.93,8.372-9.388,8.275m4.6-10.1c-2.682-1.629-4.287-3.386-5.55-3.167-1.635.286-3,2.146-4.487,3.326,1.307,1.246,2.614,3.478,3.92,3.478,1.641-.006,3.283-1.836,6.122-3.636" transform="translate(12537.208 1645.648)"/><path d="M110.146,98.811c-4.584-2.063-6.572-8.749-12.277-5.192-3.435,2.14-6.408,5.035-9.467,7.49-1.866-5.468.973-9.108,9.8-11.734,5.15-1.532,9.7,1.776,11.947,9.436" transform="translate(13064.81 1530.921)"/><path d="M98.842,102.318c-1.49-2.425-2.541-3.909-3.356-5.508-2.766-5.424-8.4-5.825-11.642-.619-1.1,1.763-1.484,3.97-2.579,7.077-3.211-3.569-1.754-6.554-.316-9.247,1.921-3.6,7.944-5.709,12.1-4.579,3.556.967,5.825,5.52,5.788,12.877" transform="translate(12993.303 1532.437)"/><path d="M100.208,102.506c-1.453-2.476-2.14-4.608-3.587-5.849-1.843-1.574-4.28-3.161-6.512-3.247-1.046-.036-2.261,3.423-3.3,5.356a7.727,7.727,0,0,0-.42,2.152c-2.821-2.786-3.277-5.891-1.332-8.852,2.024-3.076,4.9-3.6,8.214-2.614,5.132,1.526,7.624,5.794,6.937,13.054" transform="translate(13029.591 1531.208)"/><path d="M94.218,102.886c-1.38-2-2.786-3.988-4.127-6.013-4.062-6.111-7.277-6.117-11.284.03-.516.79-.645,1.891-1.271,2.541-.516.547-1.5.639-2.27.929-.237-.632-.736-1.3-.656-1.891.468-3.392,5.247-8.872,8.372-9.223,4.28-.481,7.271,1.581,9.162,5.435,1.192,2.419,2.608,4.724,3.92,7.083-.619.365-1.228.736-1.843,1.107" transform="translate(12954.791 1532.79)"/><path d="M82.381,102.787c-1.2-2.772-2.31-5.588-3.611-8.311-1.891-3.97-3.009-4.152-6.408-1.246-1.605,1.38-3.156,2.815-5.107,4.566.25-5.764,4.7-10.749,8.944-10.433a4.986,4.986,0,0,1,2.863,1.879c3.186,3.787,5.119,8.038,3.32,13.546" transform="translate(12892.29 1518.46)"/><path d="M71.217,98.675c-.085-5.356,3.344-10.062,7.363-10.093,4.268-.036,6.615,4.539,6.4,14.069-1.252-2.889-1.969-4.5-2.65-6.128-2.335-5.611-3.623-5.764-7.582-.918-.906,1.107-1.872,2.177-2.845,3.228-.079.085-.45-.1-.681-.158" transform="translate(12924.292 1527.995)"/><path d="M108.051,96.588c-2.232-1.2-4.347-2.889-6.731-3.453-2.114-.5-4.882-.8-5.952,2.469-.237.729-1.587,1.1-2.42,1.635-.14-1.246-.754-2.682-.34-3.7A7.468,7.468,0,0,1,103.4,90.083c2.225,1.238,3.909,3.447,5.836,5.222-.4.426-.79.857-1.185,1.282" transform="translate(13100.638 1529.977)"/><path d="M52.891,73.7c-12.019,1.21-19.266-6.754-27-13.631-.656-.584-.475-2.116-.687-3.211,1.112-.14,2.517-.79,3.289-.347,8.025,4.669,16.889,5.035,25.814,6.044a35.883,35.883,0,0,0,21.547-4.145c2.1-1.095,4.809-1.032,7.241-1.49C81.814,59,81,61.72,79.169,63.069A53.234,53.234,0,0,1,52.892,73.7" transform="translate(12550.646 1270.578)"/></g></svg>