<svg xmlns="http://www.w3.org/2000/svg" width="48" height="68.307" viewBox="0 0 48 68.307"><g transform="translate(-1460 2749)"><path d="M26.23,0c-11.077,0-24,6.769-24,24,0,11.692,18.462,37.538,24,44.307,4.923-6.769,24-32,24-44.307C50.23,6.769,37.306,0,26.23,0Z" transform="translate(1457.77 -2749)" fill="#fff"/><g transform="translate(1470.92 -2741.247)"><path d="M32.013,29.824c-3-3-4.353-7.859-5.551-12.151-1.144-4.1-2.141-7.652-4.335-8.91a12.113,12.113,0,0,1,.751-2.2,12.876,12.876,0,0,0,1.234-4.56.5.5,0,0,0-.147-.356A3.329,3.329,0,0,0,21.6,1,3.582,3.582,0,0,0,19.08,2.223,3.582,3.582,0,0,0,16.565,1a3.329,3.329,0,0,0-2.368.65.5.5,0,0,0-.147.356,12.876,12.876,0,0,0,1.234,4.56,12.113,12.113,0,0,1,.751,2.2c-2.194,1.258-3.192,4.815-4.335,8.91-1.2,4.291-2.556,9.156-5.551,12.151a.5.5,0,0,0,0,.712,2.8,2.8,0,0,0,3.169.787,1.908,1.908,0,0,1,1.937.282,3.019,3.019,0,0,0,3.577,0,1.984,1.984,0,0,1,2.46,0,2.982,2.982,0,0,0,3.576,0,1.984,1.984,0,0,1,2.46,0,2.985,2.985,0,0,0,3.577,0,1.908,1.908,0,0,1,1.937-.282,2.8,2.8,0,0,0,3.169-.787.5.5,0,0,0,0-.712ZM15.064,2.274a3.45,3.45,0,0,1,1.5-.268,2.987,2.987,0,0,1,2.1,1.285.5.5,0,0,0,.836,0,2.993,2.993,0,0,1,2.1-1.285,3.474,3.474,0,0,1,1.5.266,13.4,13.4,0,0,1-1.152,3.916,11.712,11.712,0,0,0-.823,2.5,6.059,6.059,0,0,1-4.083,0,11.712,11.712,0,0,0-.823-2.5A13.448,13.448,0,0,1,15.064,2.274ZM29.11,30.352a2.885,2.885,0,0,0-2.762.415,1.985,1.985,0,0,1-2.461,0,2.982,2.982,0,0,0-3.577,0,1.983,1.983,0,0,1-2.459,0,2.982,2.982,0,0,0-3.577,0,2.018,2.018,0,0,1-2.461,0,2.885,2.885,0,0,0-2.762-.415,1.783,1.783,0,0,1-1.822-.2c2.922-3.189,4.255-7.968,5.438-12.2,1.1-3.924,2.046-7.33,3.919-8.344a7.075,7.075,0,0,0,4.989,0c1.872,1.015,2.823,4.42,3.919,8.344,1.183,4.236,2.515,9.014,5.438,12.2A1.783,1.783,0,0,1,29.11,30.352Z" transform="translate(-6 -1)" fill="#212121"/><path d="M34.573,28.33a33.559,33.559,0,0,0-.579-5.936.5.5,0,1,0-.982.218,32.77,32.77,0,0,1,.553,5.758,38.4,38.4,0,0,0,1.467,10.38.5.5,0,1,0,.962-.3A37.6,37.6,0,0,1,34.573,28.33Z" transform="translate(-19.416 -11.435)" fill="#212121"/><path d="M27.024,22.425a33.559,33.559,0,0,0-.579,5.936,37.631,37.631,0,0,1-1.423,10.124.5.5,0,1,0,.962.3A38.4,38.4,0,0,0,27.451,28.4,32.77,32.77,0,0,1,28,22.644a.5.5,0,0,0-.98-.218Z" transform="translate(-15.441 -11.467)" fill="#212121"/><path d="M37.973,22.322a.5.5,0,1,0-.94.361A29.9,29.9,0,0,1,38.754,30.4a21.376,21.376,0,0,0,2.331,8.441.5.5,0,0,0,.883-.482,20.561,20.561,0,0,1-2.216-8.081A30.77,30.77,0,0,0,37.973,22.322Z" transform="translate(-21.404 -11.435)" fill="#212121"/><path d="M21.058,22.322a30.77,30.77,0,0,0-1.78,7.957,20.563,20.563,0,0,1-2.216,8.081.5.5,0,0,0,.883.482A21.376,21.376,0,0,0,20.276,30.4,29.9,29.9,0,0,1,22,22.683a.5.5,0,1,0-.94-.361Z" transform="translate(-11.466 -11.435)" fill="#212121"/></g></g></svg>