<svg xmlns="http://www.w3.org/2000/svg" width="48" height="68.307" viewBox="0 0 48 68.307"><g transform="translate(-1627 2745)"><path d="M26.23,0c-11.077,0-24,6.769-24,24,0,11.692,18.462,37.538,24,44.307,4.923-6.769,24-32,24-44.307C50.23,6.769,37.306,0,26.23,0Z" transform="translate(1624.77 -2745)" fill="#fff"/><g transform="translate(1636.787 -2739.167)"><path d="M31.446,7.721a2.034,2.034,0,0,0-1.257-1.667L24.709,3.81l-.588-.635a.613.613,0,0,0-.4-.174h-7.87a.6.6,0,0,0-.4.173l-.59.638L9.4,6.054A2.035,2.035,0,0,0,8.138,7.721L5.583,31.774a.542.542,0,0,0,.535.595h3.5l-.143.793a.538.538,0,0,0,.41.62,15.317,15.317,0,0,0,3.4.413,7.687,7.687,0,0,0,6.5-2.876c1.691,2.442,5.644,3.553,9.913,2.462a.538.538,0,0,0,.41-.62l-.143-.792h3.5A.541.541,0,0,0,34,31.774L31.446,7.721ZM19.735,16.56,17.217,6.7h5.12ZM22.621,5.619H16.943l-.394-1.543h6.48Zm-7.16,1.335a.538.538,0,0,0-.3-.379l-.968-.444,1.389-1.5,2.779,10.888L14.123,8.785l1.214-1.362a.537.537,0,0,0,.125-.468ZM24,4.624l1.4,1.508-.968.444a.538.538,0,0,0-.178.847l1.211,1.361-4.342,6.759L24,4.624ZM10.627,32.84l1.311-7.287h2.853a.538.538,0,0,0,0-1.076H12.131l.528-2.933c.01-.055-1.159-8.845-1.159-8.845a.538.538,0,0,0-1.066.143l1.151,8.594L9.812,31.293h-3.1L9.208,7.835A.96.96,0,0,1,9.8,7.049l3.339-1.367-.245.265a.542.542,0,0,0,.171.854l.981.45-1,1.121A.538.538,0,0,0,13,9.016l6.449,10.251v10.56c-.25.58-2.141,4.335-8.819,3.014Zm19.144-1.547L28,21.438l1.157-8.6a.538.538,0,1,0-1.066-.143s-1.174,8.794-1.164,8.849l.528,2.932H24.4a.538.538,0,0,0,0,1.076h3.245l1.311,7.287c-5.538,1.1-7.765-1.218-8.555-2.522.1-.227.111-.213.121-.389V19.111a1.689,1.689,0,0,0-.158-.407l6.22-9.682a.538.538,0,0,0-.051-.648l-1-1.123.982-.45a.542.542,0,0,0,.17-.854l-.245-.265,3.34,1.368a.961.961,0,0,1,.6.785l2.491,23.458h-3.1Z" transform="translate(-5.58 -3)" fill="#212121"/><path d="M27.773,33.653a.691.691,0,0,0,0,1.382A.691.691,0,0,0,27.773,33.653Z" transform="translate(-15.516 -17.164)" fill="#212121"/><path d="M27.773,40.947a.691.691,0,0,0,0,1.383A.691.691,0,0,0,27.773,40.947Z" transform="translate(-15.516 -20.534)" fill="#212121"/></g></g></svg>