<svg xmlns="http://www.w3.org/2000/svg" width="48" height="68.307" viewBox="0 0 48 68.307"><g transform="translate(1873 -2311)"><path d="M26.23,0c-11.077,0-24,6.769-24,24,0,11.692,18.462,37.538,24,44.307,4.923-6.769,24-32,24-44.307C50.23,6.769,37.306,0,26.23,0Z" transform="translate(-1875.23 2311)" fill="#fff"/><g transform="translate(-1865.521 2280.676)"><path d="M6.549,55.1c-1.475-1.247-2.916-2.387-4.265-3.626A6.144,6.144,0,0,1,.141,45.394c.383-1.9,1.093-3.554,2.891-4.424a12.992,12.992,0,0,1,3.636-1.2,29.922,29.922,0,0,1,7.226-.233,15.159,15.159,0,0,1,8.163,3.448,5.05,5.05,0,0,1,.707.86c1.039-.031,2.072-.1,3.1-.083a6.747,6.747,0,0,1,6.166,3.917,9.1,9.1,0,0,1,1,3.6,5.741,5.741,0,0,1-.883,3.229,15.934,15.934,0,0,1-4.265,4.989,44.406,44.406,0,0,1-4.3,3.1,23.155,23.155,0,0,1-9.261,3c-1.272.145-2.561.171-3.844.194a4.037,4.037,0,0,1-4.03-2.347,21.213,21.213,0,0,1-1.288-3.025,4.953,4.953,0,0,1,.893-4.676Zm22.13-7.49c0,.3-.153.658.393.858l-.066-1-.349.163c.041-.332.211-.7-.26-.9-.3.944-.3.944-.038,1.4Zm-4.238-.757-.036-.683-.706.541c-.16-.367-.011-.576.345-.683a7.3,7.3,0,0,1,4.063-.115,2.164,2.164,0,0,1,1.816,2.571,3.362,3.362,0,0,1-.106.72c-.233.885-.494,1.763-.722,2.649a4.333,4.333,0,0,1-1.466,2.276c-.748.626-1.524,1.224-2.319,1.79a56.587,56.587,0,0,1-7.451,4.12,16.252,16.252,0,0,1-6.684,1.782,6.571,6.571,0,0,1-3.218-.543,2.194,2.194,0,0,1-1.2-2.989l.695,1.871.138-.036L7.2,57.6c.561.953.5,2.094,1.1,3.041a1.193,1.193,0,0,0,.115-.667c-.065-.39-.2-.769-.27-1.159-.106-.6-.179-1.208-.266-1.813l.194-.035.611,2.468c.645-1.082.092-2.013.19-2.924L7.187,55.47a4.929,4.929,0,0,0-1.529,3.247,7.517,7.517,0,0,0,1.46,4.167,6.97,6.97,0,0,0,.538.7l.184-.447c.334.7.5,1.526,1.544,1.443l-.569-1.53c1.027,1.7,1.027,1.7,1.6,1.615l-.111-.706-.021.018a3.749,3.749,0,0,1,.358.5.6.6,0,0,0,.692.324c.724-.106,1.457-.075,2.213-.146l-.486-1.26a1.274,1.274,0,0,1,.446.576c.208.46.454.724,1.054.571a46.861,46.861,0,0,0,4.714-1.118,25.112,25.112,0,0,0,9.009-5.686,15.834,15.834,0,0,0,2.9-3.882,4.99,4.99,0,0,0,.611-1.9,7.751,7.751,0,0,0-1.468-5.095,5.259,5.259,0,0,0-2.853-2.042,8.768,8.768,0,0,0-4.708-.064A29.591,29.591,0,0,0,18.1,46.642a36.583,36.583,0,0,0-7.508,4.551c-.158.118-.3.264-.541.486l1.619.787.127-.771-.644.057a7.984,7.984,0,0,1,4.366-2.658c.449,1.015-.012,2.068.058,3.134.529-.158.514-.562.578-.909.147-.8.28-1.6.418-2.4l.147.024-.236,2.739.764-.514A4.707,4.707,0,0,1,17.8,48.8l-.227,2.235a17,17,0,0,1,4.794-2.011c.233-.07.408-.329.61-.5.552.2.71.166.908-.279.208-.467.389-.945.582-1.419l-.332,1.7.768-.508.389.186.627-2c-.669-.04-1.227-.033-1.479.657ZM14.43,53.41a1.789,1.789,0,0,0,.739-1.4c.087-.894.241-1.782.367-2.672l-.184-.1L12.87,50.771c-.071.616-.151,1.218-.2,1.823-.03.336.144.489.492.448l.384-2.225.171.025-.188,2.4c.272.092.47.173.675.221.073.017.164-.046.247-.072l-.016.018Zm12.016-2.638-.053-1.039a2,2,0,0,1,.911,2.027,3.109,3.109,0,0,1-1.349,1.894,10.235,10.235,0,0,1-4.847,1.729,19.65,19.65,0,0,1-9.275-1.716,25.935,25.935,0,0,1-5.525-3.42,10.921,10.921,0,0,1-3.042-3.274,3.578,3.578,0,0,1,.07-3.592,3.84,3.84,0,0,1,2.195-1.606l.194.136-.883,2.805c.962-.4.812-1.547,1.614-2.195l-.7,2.056c.461.209.594-.026.721-.351.219-.562.476-1.11.716-1.663l.2.071L6.76,44.565c.446.172.544-.073.668-.336.328-.692.679-1.373,1.022-2.059l.162.078L7.7,44.624c.753.129.687-.482.893-.784.242-.353.424-.747.633-1.124l.152.076-.725,1.866.226.117L10.487,42.2l.181.106L9.48,44.608c.083.075.121.139.172.15a2.792,2.792,0,0,0,.356.037,4.655,4.655,0,0,1,1.6-2.43L10.42,44.8a29.686,29.686,0,0,1,6.4,1.681l3.83-1.845a10.706,10.706,0,0,0-3.066-1.624c-1.061-.4-2.16-.707-3.248-1.056,1.339-.386,5.44,1.233,6.56,2.592a4.422,4.422,0,0,0,.431-.136A3.617,3.617,0,0,0,21.7,44.2c-.092-.123-.141-.2-.2-.266a2.31,2.31,0,0,0-.265-.254A14.381,14.381,0,0,0,12,40.418c-.643.007-1.286-.016-1.927.011a31.436,31.436,0,0,0-3.555.222A10.187,10.187,0,0,0,2.894,41.9a1.917,1.917,0,0,0-.974,1.157c-.232.884-.457,1.772-.652,2.664A5.068,5.068,0,0,0,3,50.67c1.147,1.1,2.407,2.074,3.616,3.107a19.643,19.643,0,0,0,8.063,3.71l.736-.618.079.089-.528.579c.627.271.626.27.964-.014a2.672,2.672,0,0,1,1.143-.775L15.99,57.964c.8.286,1.093-.429,1.731-.638l-.491.712a.681.681,0,0,0,1.059-.092c.385-.434.8-.839,1.22-1.246a5.551,5.551,0,0,1,.483-.383l.089.118-1.529,1.741c.387.29.594.081.787-.116.536-.545,1.061-1.1,1.6-1.648.2-.2.407-.382.611-.573l.114.126-.939,1.271a20.7,20.7,0,0,0,6.986-4.651c-.24-1.25.115-2.561-.909-3.538a8.86,8.86,0,0,0-3.694.883c.611.246.872,1.021,1.628.577-.324.7.382,1.06.471,1.7l.6-.538-.475,1.259a15.567,15.567,0,0,0,1.1-1.112c.4-.372.408-.686.022-1.042Zm-17.095.37c1.787-1.717,4-2.753,6.167-4.05a4.176,4.176,0,0,0-.435-.212,33.635,33.635,0,0,0-8.83-1.447,5.668,5.668,0,0,0-2.558.559C4.34,47.474,6.61,49.545,9.352,51.142Zm5.871,2.618a15.588,15.588,0,0,0,8.96.047c.213-1.633-.691-2.535-1.8-3.334a.97.97,0,0,0-.929-.142A17.4,17.4,0,0,0,15.223,53.76ZM9.412,61.02a17.036,17.036,0,0,0,8.073-1.944,6.372,6.372,0,0,0-.682-.25c-.594-.128-1.2-.21-1.785-.363-1.06-.275-2.108-.592-3.164-.882-.325-.089-.649-.161-.918.167A5.669,5.669,0,0,0,9.412,61.02ZM3.445,45.183l.819-1.8.129.065-.608,1.782c.327-.168.559-.209.6-.324.328-.836.617-1.686.945-2.6-1.612.77-2.066,1.43-1.888,2.881Zm24.113,1.661-.185,1.072.2.066c.425-.358.362-.939.6-1.458L27,46.226l-.49,1.74c.845.011.562-.806,1.052-1.122Zm-1.9,1.233.206.069c.641-.461.623-1.216.85-2.1-.33.158-.593.2-.628.315C25.915,46.922,25.8,47.5,25.663,48.077ZM9.106,56.584l.263,1.7,1.007-1.171ZM28.622,50.7l.276-1.158-1.218-.538Zm-16.318,2,.26-1.613C11.833,51.513,11.766,51.827,12.3,52.708Z" transform="translate(0)" fill="#212121"/><path d="M141.863,317.214l.4,1.026-.155.056-.369-1.036Z" transform="translate(-129.753 -254.301)" fill="#212121"/><path d="M130.891,320.633l.24.5-.109.051-.232-.508Z" transform="translate(-119.728 -257.43)" fill="#212121"/><path d="M117.532,322.151l-.4-.607.183-.081.2.706Z" transform="translate(-107.226 -258.19)" fill="#212121"/><path d="M271.923,136.008l-.392.959Z" transform="translate(-248.566 -88.42)" fill="#212121"/><path d="M276.269,125.172l-.391.959Z" transform="translate(-252.545 -78.501)" fill="#212121"/><path d="M169.835,173.933a4.423,4.423,0,0,1,.387-2.837c-.048.471-.083.944-.148,1.413s-.164.956-.252,1.438Z" transform="translate(-155.389 -120.541)" fill="#212121"/></g></g></svg>