<svg xmlns="http://www.w3.org/2000/svg" width="150"
                  height="134.916" viewBox="0 0 150 134.916">
                  <g transform="translate(0.6 0.1)">
                    <path
                      d="M75.429,1459.706l6.15-2.555a2.659,2.659,0,0,0-2.555-1.456,3.767,3.767,0,0,0-3.6,4.011m7.22,2.473,2.347,1.56a6.842,6.842,0,0,1-5.734,3.053,6.653,6.653,0,0,1-6.729-6.878c0-4.093,2.845-6.878,6.4-6.878,3.261.111,5.288,2.213,6.2,5.155l-9.21,3.8a3.5,3.5,0,0,0,3.335,2.087,3.927,3.927,0,0,0,3.38-1.9m-14.93,4.2h3.023v-20.2H67.7Zm-4.932-6.44c0-2.422-1.619-4.2-3.677-4.2a4.186,4.186,0,0,0,0,8.341A3.843,3.843,0,0,0,62.773,1459.936Zm2.659-6.484v12.33c0,5.081-2.993,7.168-6.536,7.168a6.564,6.564,0,0,1-6.1-4.063l2.629-1.092a3.81,3.81,0,0,0,3.469,2.451c3.38-.384,3.677-2.57,3.677-5.029h-.111a4.7,4.7,0,0,1-3.625,1.567,6.888,6.888,0,0,1,0-13.763,4.765,4.765,0,0,1,3.625,1.537h.1v-1.122c0-.007,2.867-.007,2.867-.007Zm-32.979,6.462a3.826,3.826,0,1,0-3.81,4.167,3.933,3.933,0,0,0,3.81-4.167m2.971,0a6.782,6.782,0,1,1-6.781-6.878,6.736,6.736,0,0,1,6.781,6.878m12.256,0a3.826,3.826,0,1,0-3.81,4.167,3.933,3.933,0,0,0,3.81-4.167m2.971,0a6.782,6.782,0,1,1-6.781-6.878,6.736,6.736,0,0,1,6.781,6.878m-40.406,6.878a10.7,10.7,0,1,1,0-21.392,10.165,10.165,0,0,1,7.324,2.949l-2.057,2.057a7.43,7.43,0,0,0-5.266-2.087,7.725,7.725,0,0,0,0,15.449,7.148,7.148,0,0,0,5.392-2.139,6.1,6.1,0,0,0,1.59-3.677H10.244v-2.919h9.8a9.5,9.5,0,0,1,.156,1.82,9.477,9.477,0,0,1-9.953,9.842"
                      transform="translate(0 -1338.133)" fill="#5f6368" fill-rule="evenodd" />
                    <path
                      d="M1249.14,1501.895v-17.961h2.319l6.238,10.939h.094l6.238-10.939h2.319v17.961h-2.319l.094-13.666h-.094l-5.611,9.842h-1.348l-5.611-9.842h-.094c.171,4.546.094,9.121.094,13.666Zm24.449.313a4.8,4.8,0,0,1-3.26-1.128,3.745,3.745,0,0,1-1.317-2.979,3.658,3.658,0,0,1,1.567-3.134,6.349,6.349,0,0,1,3.824-1.128,6.519,6.519,0,0,1,3.323.752,3.039,3.039,0,0,0-3.229-3.323,3.106,3.106,0,0,0-2.946,1.787l-2.1-.909a4.792,4.792,0,0,1,1.693-2.037,5.429,5.429,0,0,1,3.323-.94,5.747,5.747,0,0,1,3.918,1.379,4.938,4.938,0,0,1,1.567,3.887v7.429h-2.194v-1.693a5.216,5.216,0,0,1-4.169,2.037Zm4.138-5.7c-1.351-1.028-4.169-1.157-5.485-.094-1.034,1-1.144,2.348-.063,3.135C1274.793,1501.22,1277.82,1498.609,1277.726,1496.5Zm11.221,5.7a5.031,5.031,0,0,1-2.508-.6,4.576,4.576,0,0,1-1.661-1.5h-.125l.094,1.693v5.423h-2.288v-17.71h2.194v1.693h.094a4.334,4.334,0,0,1,1.661-1.5,5.2,5.2,0,0,1,2.508-.6,5.386,5.386,0,0,1,4.106,1.881,7.19,7.19,0,0,1,0,9.341A5.322,5.322,0,0,1,1288.948,1502.208Zm-.376-2.131a3.691,3.691,0,0,0,2.758-1.222,5.074,5.074,0,0,0,0-6.457,3.756,3.756,0,0,0-5.517-.031,4.553,4.553,0,0,0-1.128,3.228,4.5,4.5,0,0,0,1.128,3.229A3.426,3.426,0,0,0,1288.572,1500.076Zm12.914,2.131a5.5,5.5,0,0,1-3.385-1,5.937,5.937,0,0,1-1.975-2.508l2.069-.846a3.407,3.407,0,0,0,3.323,2.319,2.978,2.978,0,0,0,1.755-.47,1.415,1.415,0,0,0,.689-1.254c0-.815-.564-1.348-1.693-1.63l-2.476-.6a5.993,5.993,0,0,1-2.225-1.128,2.752,2.752,0,0,1-1.066-2.257,3.024,3.024,0,0,1,1.442-2.633,5.708,5.708,0,0,1,3.417-1,5.608,5.608,0,0,1,2.915.752,4.051,4.051,0,0,1,1.818,2.131l-2.006.815a2.7,2.7,0,0,0-2.821-1.63,3.259,3.259,0,0,0-1.723.439,1.274,1.274,0,0,0-.69,1.16c0,.69.533,1.191,1.63,1.442l2.445.564a4.706,4.706,0,0,1,2.57,1.379,3.238,3.238,0,0,1,.815,2.194,3.383,3.383,0,0,1-1.348,2.758,5.87,5.87,0,0,1-3.479,1Z"
                      transform="translate(-1156.914 -1373.805)" fill="#63666a" />
                    <path
                      d="M831,281.334a88.633,88.633,0,0,1,7.182,10.622,55.2,55.2,0,0,1,3.944,10.027c.795,2.3,1.552,3,3.142,3,1.738,0,2.533-1.174,3.142-3a56.143,56.143,0,0,1,3.8-9.8c5.987-11.29,15.747-19.312,21.243-30.3a37.054,37.054,0,0,0,3.617-16.118,31.92,31.92,0,0,0-3.565-14.855l-42.486,50.508Z"
                      transform="translate(-769.832 -213.842)" fill="#34a853" />
                    <path
                      d="M636.352,345.666c3.424,7.8,9.953,14.633,14.41,20.649l23.62-28a12.412,12.412,0,0,1-9.359,4.367,12.106,12.106,0,0,1-12.181-12.107,13.1,13.1,0,0,1,2.771-7.873c-17.381,2.585-16.415,6.8-19.312,22.951Z"
                      transform="translate(-589.593 -298.824)" fill="#fbbc04" />
                    <path
                      d="M916.293,19.6a31.423,31.423,0,0,1,18.569,15.672L916,57.778a13.155,13.155,0,0,0,2.771-7.873A12.227,12.227,0,0,0,906.659,37.8a12.606,12.606,0,0,0-9.359,4.315c1.448-3.3,16.415-21.392,19.015-22.506Z"
                      transform="translate(-831.207 -18.237)" fill="#4285f4" />
                    <path
                      d="M695,11.264A31.583,31.583,0,0,1,719.288-.1a32.31,32.31,0,0,1,9.656,1.456L710,23.862c-1.278-.693-13.741-10.4-15-12.627Z"
                      transform="translate(-643.933)" fill="#1a73e8" />
                    <path
                      d="M598.4,189.4a36.313,36.313,0,0,1-3.1-15,31.677,31.677,0,0,1,7.428-20.5l15,12.627L598.42,189.4Z"
                      transform="translate(-551.639 -142.561)" fill="#ea4335" />
                  </g></svg>