<svg xmlns="http://www.w3.org/2000/svg" width="51.612" height="75.249" viewBox="0 0 51.612 75.249">
                  <g transform="translate(-2420.094 -4380)">
                    <g transform="translate(2423 4380)">
                      <path
                        d="M25.043,42.609c1.575,0,3.15.071,4.725-.034a22.7,22.7,0,0,0,4.341-.56A18.259,18.259,0,0,0,46.322,16.609,17.6,17.6,0,0,0,31.448,6.035a17.532,17.532,0,0,0-14,4.583A17.744,17.744,0,0,0,11.36,23.846c-.034,1.224,0,2.486,0,3.71a5.63,5.63,0,0,1-4.1,5.531c-.034,0-.1.071-.142.071.982,2.59,4.968,6.4,7.454,7.349a5.815,5.815,0,0,1,10.469,2.1Z"
                        transform="translate(-4.462 -3.712)" fill="#fff" />
                      <path
                        d="M20.509,41.238a5.421,5.421,0,0,1-2.87,3.848,5.519,5.519,0,0,1-5.811-.209A5.546,5.546,0,0,1,9.2,39.521a.6.6,0,0,0-.384-.7A18.759,18.759,0,0,1,.876,31.19a8.961,8.961,0,0,1-.806-2.1c-.246-1.015.142-1.5,1.191-1.609A3.4,3.4,0,0,0,4.2,25.659a4.233,4.233,0,0,0,.384-1.751c.071-1.5,0-3.008.071-4.516A20.053,20.053,0,0,1,11.868,4.974,20.055,20.055,0,0,1,26.036.01,20.336,20.336,0,0,1,45.285,16.145c1.713,8.331-.873,15.3-7.491,20.719a11.749,11.749,0,0,1-1.262.911c-.246.175-.314.314-.209.593a5.732,5.732,0,1,1-10.988,3.255c-.034-.142-.209-.314-.314-.314-1.467-.1-2.975-.071-4.513-.071Zm.071-2.344c1.575,0,3.15.071,4.725-.034a22.7,22.7,0,0,0,4.341-.56A18.259,18.259,0,0,0,41.858,12.894,17.6,17.6,0,0,0,26.984,2.32a17.532,17.532,0,0,0-14,4.583A17.744,17.744,0,0,0,6.9,20.131c-.034,1.224,0,2.486,0,3.71a5.63,5.63,0,0,1-4.1,5.531c-.034,0-.1.071-.142.071.982,2.59,4.968,6.4,7.454,7.349a5.815,5.815,0,0,1,10.469,2.1Z"
                        transform="translate(0.002 0.003)" />
                      <path
                        d="M60.171,68.077c-4.132-.209-6.86-1.855-8.611-5.143a1.173,1.173,0,0,1,.769-1.784c.489-.1.944.246,1.3.806a10.418,10.418,0,0,0,1.5,1.96,6.838,6.838,0,0,0,10.746-1.889,1.276,1.276,0,0,1,1.153-.873,1.158,1.158,0,0,1,.982,1.713,8.676,8.676,0,0,1-5.11,4.583,21.3,21.3,0,0,1-2.728.627Z"
                        transform="translate(-32.207 -38.313)" />
                      <path d="M51.5,41.346a2.273,2.273,0,1,1,2.273-2.273A2.268,2.268,0,0,1,51.5,41.346Z"
                        transform="translate(-30.855 -23.064)" />
                      <path
                        d="M90.693,38.973a2.318,2.318,0,0,1-2.239,2.31A2.247,2.247,0,0,1,86.18,39.01a2.257,2.257,0,1,1,4.513-.037Z"
                        transform="translate(-54.013 -23.001)" />
                    </g>
                    <g transform="translate(2420.094 4443.326)">
                      <path
                        d="M518.293,63.686l-2.8-8.077a2.723,2.723,0,0,1-.15-.791,1.5,1.5,0,0,1,1.56-1.474,1.62,1.62,0,0,1,1.581,1.26l1.752,5.812,1.8-5.791a1.714,1.714,0,0,1,1.666-1.3h.192a1.715,1.715,0,0,1,1.667,1.3l1.816,5.812,1.8-5.855a1.59,1.59,0,0,1,1.56-1.24,1.478,1.478,0,0,1,1.517,1.5,2.854,2.854,0,0,1-.107.662l-2.885,8.184a1.861,1.861,0,0,1-1.795,1.453h-.107A1.789,1.789,0,0,1,525.6,63.75l-1.816-5.769-1.838,5.769a1.789,1.789,0,0,1-1.752,1.389h-.107a1.86,1.86,0,0,1-1.795-1.453"
                        transform="translate(-515.344 -53.258)" />
                      <path
                        d="M908.948,61.366v-.577a5.036,5.036,0,0,0-2.073-.427c-1.389,0-2.244.556-2.244,1.581v.043c0,.876.726,1.389,1.773,1.389,1.517,0,2.543-.834,2.543-2.009m-7.458.748v-.043c0-2.5,1.9-3.654,4.616-3.654a8.134,8.134,0,0,1,2.8.47v-.192c0-1.346-.833-2.094-2.457-2.094a7.442,7.442,0,0,0-2.244.321,1.373,1.373,0,0,1-.47.085,1.322,1.322,0,0,1-1.346-1.325,1.346,1.346,0,0,1,.876-1.261,9.965,9.965,0,0,1,3.654-.6,5.287,5.287,0,0,1,3.867,1.282,4.991,4.991,0,0,1,1.239,3.654v5.214a1.559,1.559,0,0,1-1.581,1.56,1.454,1.454,0,0,1-1.56-1.346v-.022a4.4,4.4,0,0,1-3.461,1.453c-2.158,0-3.932-1.239-3.932-3.5"
                        transform="translate(-884.196 -53.738)" />
                      <path
                        d="M1158.756,66.963V66.9a2.131,2.131,0,0,1,.726-1.581l5.321-5.876h-4.53a1.313,1.313,0,0,1-1.325-1.3,1.331,1.331,0,0,1,1.325-1.325h7.116a1.4,1.4,0,0,1,1.581,1.3v.064a2.133,2.133,0,0,1-.726,1.581l-5.342,5.876h4.744a1.332,1.332,0,0,1,1.325,1.325,1.313,1.313,0,0,1-1.325,1.3h-7.308a1.4,1.4,0,0,1-1.581-1.3"
                        transform="translate(-1128.989 -56.599)" />
                      <path
                        d="M1398.7,56.879a2.456,2.456,0,0,0-2.415-2.436,2.553,2.553,0,0,0-2.479,2.436Zm-2.094,6.88a5.729,5.729,0,0,1-5.983-5.919V57.8a5.7,5.7,0,0,1,5.662-5.961,5.414,5.414,0,0,1,5.513,5.513,1.482,1.482,0,0,1-1.517,1.56h-6.432a2.656,2.656,0,0,0,2.8,2.243,3.75,3.75,0,0,0,2.308-.769,1.212,1.212,0,0,1,.791-.256,1.242,1.242,0,0,1,1.26,1.282,1.274,1.274,0,0,1-.427.962,5.934,5.934,0,0,1-3.974,1.389"
                        transform="translate(-1350.191 -51.836)" />
                    </g>
                  </g>
                </svg>