<?xml version="1.0" standalone="no"?>
<!DOCTYPE svg PUBLIC "-//W3C//DTD SVG 20010904//EN"
 "http://www.w3.org/TR/2001/REC-SVG-20010904/DTD/svg10.dtd">
<svg version="1.0" xmlns="http://www.w3.org/2000/svg"
 width="700.000000pt" height="700.000000pt" viewBox="0 0 700.000000 700.000000"
 preserveAspectRatio="xMidYMid meet">
<metadata>
Created by potrace 1.14, written by Peter Selinger 2001-2017
</metadata>
<g transform="translate(0.000000,700.000000) scale(0.100000,-0.100000)"
fill="#000000" stroke="none">
<path d="M2297 6294 c-1 -1 -85 -5 -187 -8 -102 -4 -198 -9 -215 -11 -16 -2
-61 -6 -100 -9 -38 -4 -83 -8 -100 -11 -16 -2 -73 -9 -125 -16 -181 -22 -202
-25 -347 -60 -264 -63 -604 -207 -745 -316 -222 -170 -352 -406 -437 -790 -31
-139 -36 -186 -35 -338 0 -189 15 -273 80 -442 91 -239 243 -425 594 -729 25
-21 47 -41 50 -44 3 -3 150 -127 328 -274 177 -148 322 -272 322 -276 0 -4
-34 -52 -76 -106 -187 -243 -256 -427 -257 -684 -2 -228 44 -389 210 -748 139
-301 192 -389 290 -485 97 -95 187 -149 319 -192 43 -14 100 -28 128 -31 28
-4 55 -9 59 -11 10 -6 380 -4 527 2 170 7 397 23 420 30 8 2 49 7 90 10 41 4
82 8 90 10 8 2 51 8 95 15 44 7 89 14 100 17 11 2 29 5 40 7 76 11 310 65 458
106 479 131 937 341 1351 620 168 112 668 492 836 635 87 74 266 252 316 315
16 19 36 42 44 50 44 41 294 389 323 450 4 8 23 42 43 75 158 267 222 489 210
724 -4 68 -8 127 -10 130 -2 3 -7 29 -11 56 -25 190 -122 469 -222 640 -98
166 -153 237 -282 366 -113 112 -211 184 -338 248 -129 65 -301 120 -428 136
-27 3 -65 8 -83 11 -69 11 -502 6 -772 -10 -19 -1 -34 11 -62 49 -21 28 -48
63 -60 78 -27 36 -149 131 -293 230 -344 235 -692 394 -1060 482 -77 18 -158
36 -179 39 -21 4 -48 9 -60 11 -12 3 -39 7 -61 9 -22 2 -67 7 -100 10 -132 14
-155 16 -295 22 -145 6 -380 11 -383 8z m463 -219 c68 -3 127 -8 130 -10 3 -1
34 -6 70 -9 371 -37 839 -206 1206 -434 230 -143 424 -298 424 -340 0 -11 -95
-58 -136 -66 -27 -6 -35 -2 -61 26 -52 59 -184 153 -308 221 -181 98 -454 212
-581 242 -10 3 -46 12 -79 20 -148 38 -298 53 -364 36 -18 -5 7 -16 105 -45
613 -184 955 -331 1188 -511 24 -18 26 -15 -54 -53 -36 -16 -154 -73 -262
-126 -108 -52 -219 -105 -245 -117 -26 -12 -88 -41 -137 -66 l-90 -44 -100 40
c-233 92 -463 156 -831 231 -110 22 -213 43 -230 46 -42 7 -189 37 -193 39 -1
1 52 114 118 250 66 136 118 250 116 252 -10 10 -145 -136 -187 -202 -42 -66
-108 -200 -124 -255 -12 -40 -21 -46 -63 -42 -67 6 -69 27 -13 134 198 383
202 391 189 399 -21 14 -35 10 -42 -8 -3 -10 -28 -52 -56 -93 -27 -41 -53 -82
-58 -90 -6 -12 -199 -326 -208 -338 -5 -7 -44 19 -44 28 0 5 31 90 69 187 82
210 81 206 59 211 -12 2 -25 -13 -48 -58 -17 -33 -48 -89 -70 -125 -21 -35
-49 -89 -62 -121 -29 -71 -60 -96 -115 -92 l-40 3 95 248 c79 204 93 250 81
257 -7 5 -17 6 -21 2 -3 -4 -61 -116 -127 -250 -130 -260 -141 -274 -199 -256
l-29 9 63 195 c35 107 64 200 64 206 0 7 -8 14 -19 17 -20 5 -16 12 -117 -225
-30 -69 -54 -129 -54 -133 0 -16 -44 -67 -66 -75 -33 -13 -87 7 -79 29 34 86
134 395 130 399 -11 11 -66 -66 -105 -148 -65 -136 -100 -200 -123 -227 -23
-26 -85 -68 -92 -61 -2 2 9 46 26 98 16 52 31 100 33 105 1 6 7 26 13 45 94
290 104 331 92 346 -18 22 -56 12 -169 -42 -207 -101 -307 -208 -379 -406 -41
-112 -51 -168 -52 -288 -1 -251 157 -521 487 -830 97 -92 139 -126 312 -257
575 -434 973 -652 1517 -831 230 -76 515 -148 660 -168 28 -3 52 -7 55 -9 3
-2 34 -6 70 -10 36 -4 73 -9 83 -11 130 -25 692 -24 817 1 24 5 59 11 110 19
54 9 196 48 273 76 221 81 473 216 599 321 111 94 211 288 210 413 0 59 -19
132 -52 195 -24 45 -121 151 -138 151 -5 0 -8 -25 -7 -57 2 -32 3 -79 4 -104
1 -34 8 -54 26 -75 55 -62 46 -118 -31 -200 -129 -138 -216 -225 -220 -222 -2
2 17 57 41 123 25 65 44 119 43 121 -2 1 -27 -20 -57 -46 -55 -49 -71 -54 -71
-22 0 9 -23 56 -50 103 -52 90 -67 149 -50 195 5 13 8 24 7 24 -1 0 -22 -6
-47 -14 -59 -17 -108 -1 -176 58 -27 24 -65 53 -83 64 l-34 21 54 24 c93 43
221 84 340 111 133 29 161 33 292 42 l97 7 30 -34 c62 -71 110 -190 124 -309
3 -25 8 -97 12 -160 3 -63 10 -144 15 -180 l9 -65 -88 -85 c-294 -288 -634
-529 -1037 -734 -161 -82 -333 -161 -339 -155 -3 2 38 61 89 130 58 79 90 131
85 139 -5 9 -13 9 -26 2 -18 -10 -229 -219 -406 -403 -46 -48 -94 -92 -107
-99 -28 -14 -90 -5 -98 16 -3 8 24 46 68 96 41 46 86 96 100 113 149 170 148
168 129 180 -16 10 -88 -53 -265 -231 -113 -114 -168 -163 -189 -166 -33 -7
-78 4 -112 27 l-24 15 34 48 c18 26 41 60 52 76 l18 28 -41 -20 c-22 -12 -53
-32 -69 -45 -83 -69 -147 -93 -214 -82 -47 8 -49 4 57 121 100 110 123 138
118 142 -9 10 -126 -64 -180 -114 -107 -98 -120 -103 -199 -71 l-55 23 32 35
c18 19 43 47 56 61 12 15 20 31 16 37 -4 7 -36 -14 -82 -54 -42 -36 -81 -65
-87 -65 -19 0 -354 96 -482 138 -125 41 -297 104 -349 127 -16 8 -59 26 -95
41 -174 71 -410 203 -582 326 -118 83 -662 534 -843 698 -67 61 -225 218 -253
253 -162 199 -251 423 -256 645 -3 109 8 213 28 280 3 9 7 28 10 42 22 123
126 520 148 567 41 88 122 155 288 238 158 80 418 167 560 189 19 3 46 8 60
11 113 25 311 39 695 50 121 4 221 8 222 9 4 4 395 -3 503 -9z m-1666 -492
c-20 -54 -40 -111 -44 -126 -30 -98 -126 -334 -139 -342 -9 -5 -37 -19 -63
-32 l-47 -22 64 187 c35 102 62 189 59 194 -9 15 -24 8 -33 -14 -5 -13 -25
-57 -44 -98 -20 -41 -53 -115 -75 -163 -45 -101 -50 -96 -46 38 4 154 60 259
190 353 51 37 198 122 211 122 1 0 -13 -44 -33 -97z m4388 -367 c343 -30 640
-162 841 -375 179 -190 351 -542 393 -806 3 -20 8 -47 11 -59 10 -47 13 -329
3 -390 -50 -311 -363 -804 -751 -1182 -412 -403 -839 -706 -1345 -957 -306
-151 -679 -296 -831 -323 -15 -3 -44 -9 -63 -14 -31 -8 -354 -74 -420 -86 -14
-2 -36 -7 -50 -10 -14 -3 -36 -8 -50 -11 -14 -2 -59 -13 -100 -23 -146 -37
-194 -15 -260 116 -27 54 -101 142 -88 104 11 -29 60 -155 78 -200 10 -25 17
-47 15 -49 -6 -6 -41 -8 -200 -15 -157 -7 -247 -14 -284 -21 -47 -9 -96 23
-140 91 -23 35 -44 64 -47 64 -3 0 -2 -29 1 -65 l7 -65 -36 0 c-20 0 -50 7
-66 15 -25 13 -109 129 -198 275 -28 46 -27 37 4 -46 14 -38 39 -104 54 -147
l28 -78 -54 5 c-65 6 -128 40 -163 86 -13 18 -43 74 -67 124 l-43 91 -17 -42
c-9 -24 -20 -43 -23 -43 -13 1 -106 132 -163 230 -159 277 -224 439 -253 635
-7 46 -8 222 -1 233 2 4 7 28 10 55 9 68 59 207 100 280 38 69 113 175 158
222 15 16 28 33 28 36 0 27 50 5 202 -90 158 -98 173 -110 174 -137 2 -45 13
-165 19 -204 11 -66 12 -180 4 -228 -12 -61 -50 -156 -59 -145 -6 7 -73 262
-86 328 -2 11 -13 57 -25 101 -18 70 -24 81 -40 77 -22 -6 -23 5 11 -223 19
-132 35 -212 73 -371 14 -59 13 -92 -5 -148 l-11 -35 -28 57 c-37 72 -74 185
-95 283 -12 60 -56 195 -78 244 l-26 55 5 -42 c9 -77 16 -127 26 -183 5 -30
12 -75 15 -100 3 -25 12 -79 19 -120 12 -72 7 -106 -14 -84 -11 11 -141 357
-141 376 -1 27 -24 -29 -36 -87 -34 -164 11 -322 121 -424 160 -148 420 -225
755 -225 96 1 278 11 316 18 11 2 47 7 80 10 240 25 638 139 918 262 130 57
889 437 1096 549 404 218 763 460 1122 756 152 126 258 262 316 409 17 44 170
584 188 665 28 131 31 277 6 374 -39 153 -132 248 -301 307 -137 48 -273 68
-446 68 -141 0 -210 -7 -331 -34 -194 -42 -234 -65 -234 -131 0 -21 3 -40 8
-43 4 -2 39 20 77 49 39 29 71 52 72 51 1 -1 4 -29 7 -62 2 -32 5 -61 5 -64 1
-3 12 13 24 35 35 62 92 88 200 92 67 2 88 0 85 -10 -3 -6 -31 -97 -63 -202
-32 -104 -62 -194 -66 -199 -4 -4 -22 -1 -40 8 -18 9 -36 16 -41 16 -5 0 -42
-22 -83 -50 -72 -49 -92 -59 -81 -42 3 5 8 23 11 40 5 29 38 200 50 262 6 33
-20 -24 -80 -170 -27 -66 -59 -128 -75 -144 l-29 -30 -65 13 -64 13 -48 -46
c-43 -42 -61 -51 -178 -87 -387 -120 -655 -231 -832 -344 -59 -38 -80 -46 -78
-30 1 6 5 42 8 80 6 65 12 130 21 215 2 19 6 62 10 95 l5 60 -20 -37 c-24 -44
-66 -170 -74 -218 -6 -43 -19 -175 -20 -214 -1 -24 -13 -38 -76 -82 -41 -29
-78 -54 -81 -54 -4 0 -5 12 -4 28 2 15 6 59 9 97 8 95 17 193 21 235 17 170
17 220 1 220 -9 0 -16 -2 -16 -5 0 -3 -9 -56 -20 -118 -11 -62 -22 -128 -25
-147 -30 -182 -59 -321 -72 -353 -14 -32 -65 -77 -88 -77 -8 0 0 188 12 265
14 87 8 306 -9 350 -14 36 -18 40 -51 39 -120 -2 -446 -158 -652 -313 -80 -60
-203 -179 -221 -214 l-15 -28 65 7 c60 6 65 5 62 -12 -2 -11 -7 -42 -10 -69
-4 -28 -10 -56 -14 -61 -7 -12 -324 137 -330 154 -4 14 83 87 248 207 80 58
150 109 157 115 18 15 369 250 443 296 54 34 165 101 248 149 132 77 547 285
567 285 2 0 32 13 67 29 35 16 108 49 163 74 55 25 144 66 198 91 55 25 101
46 104 46 2 0 28 11 56 24 213 98 475 171 702 195 172 19 234 20 387 7z
m-3892 -210 c89 -7 193 -17 225 -21 17 -2 66 -6 110 -10 44 -4 98 -10 120 -15
22 -4 47 -8 55 -8 15 1 83 -9 130 -17 14 -3 39 -7 55 -9 17 -3 61 -10 100 -16
231 -37 770 -172 847 -213 49 -26 51 -28 30 -42 -16 -12 -339 -198 -462 -267
-293 -164 -610 -383 -767 -530 l-52 -49 -93 58 c-174 107 -441 296 -523 370
-11 10 -47 40 -80 68 -103 84 -297 286 -368 380 -64 85 -127 191 -127 213 0
20 258 100 375 115 34 5 341 -1 425 -7z m4039 -261 c-33 -150 -60 -214 -109
-264 -33 -32 -67 -40 -76 -18 -5 14 60 294 81 343 7 18 26 36 46 46 57 25 84
36 86 34 1 -1 -12 -65 -28 -141z m238 69 c51 -13 95 -24 98 -24 2 0 -3 -19
-11 -42 -8 -23 -21 -70 -29 -105 -25 -108 -64 -167 -104 -156 -25 6 -25 2 8
178 5 27 8 51 6 53 -8 8 -55 -69 -74 -121 -12 -33 -27 -64 -34 -71 -30 -30
-92 -52 -102 -36 -5 8 42 188 82 312 17 55 0 53 160 12z m188 -99 c30 -29 34
-53 21 -128 l-6 -37 30 15 c43 22 46 20 49 -32 1 -27 4 -72 6 -100 2 -29 1
-53 -2 -53 -2 0 -18 8 -34 17 -30 18 -52 66 -49 105 4 44 -1 43 -31 -6 l-31
-50 -19 35 c-10 18 -18 49 -19 68 0 44 39 191 52 191 5 0 20 -11 33 -25z m48
-561 c18 -10 17 -16 -10 -129 l-29 -119 -21 35 c-11 19 -34 60 -52 92 -74 135
-95 173 -108 192 -7 11 -13 23 -13 26 0 7 192 -74 233 -97z m-2821 46 c6 0 7
-18 3 -47 -4 -27 -8 -61 -11 -78 -2 -16 -6 -45 -9 -62 -9 -57 -15 -97 -19
-133 -3 -19 -9 -66 -15 -105 -5 -38 -13 -97 -16 -131 -13 -133 -54 -227 -122
-284 -52 -43 -72 -45 -154 -20 l-71 21 7 107 c3 59 8 123 10 142 1 19 6 82 10
140 4 58 9 108 11 111 4 7 -26 22 -32 16 -4 -3 -32 -139 -39 -192 -20 -131
-48 -271 -57 -276 -16 -10 -56 2 -73 21 -21 23 -25 66 -14 150 13 104 18 151
25 215 4 33 8 67 9 75 2 18 31 38 235 162 85 52 184 113 220 136 36 23 71 39
78 37 8 -3 18 -5 24 -5z m1428 -230 c14 -7 61 -41 106 -76 201 -156 299 -318
311 -515 8 -128 7 -131 -80 -157 -62 -18 -194 -50 -280 -67 -29 -6 -155 -23
-237 -32 -90 -10 -452 -10 -566 0 -45 4 -128 14 -185 22 -57 9 -122 18 -144
21 -22 3 -101 19 -175 35 -74 17 -144 32 -155 35 -87 19 -89 12 31 105 298
232 538 375 899 534 82 36 308 109 365 117 31 4 78 -5 110 -22z m-2055 -192
c-10 -63 -14 -91 -19 -113 -2 -11 -7 -42 -11 -70 -5 -27 -9 -53 -11 -57 -1 -5
-2 -20 -3 -35 -1 -26 -3 -24 -31 22 -68 117 -62 190 23 255 29 22 54 40 55 40
2 0 1 -19 -3 -42z m-589 -1179 c65 -27 120 -52 123 -54 2 -3 -18 -30 -45 -62
-27 -32 -58 -69 -69 -82 -11 -13 -37 -42 -57 -65 -36 -40 -38 -40 -39 -16 -2
37 -6 65 -23 170 -9 52 -19 110 -22 128 -2 17 -1 32 5 32 5 0 62 -23 127 -51z
m694 -223 c300 -86 539 -146 685 -172 91 -16 230 -57 247 -73 10 -8 -250 -125
-422 -189 -201 -75 -517 -161 -651 -177 -24 -3 -55 -7 -69 -10 -64 -12 -111
-17 -280 -30 -68 -5 -224 -9 -259 -6 -28 2 6 184 56 301 61 141 225 383 288
422 46 29 107 19 405 -66z"/>
<path d="M2542 1298 c3 -7 20 -56 38 -108 39 -111 35 -104 55 -97 11 5 13 12
6 29 -5 13 -24 60 -41 106 -21 52 -38 82 -47 82 -8 0 -13 -6 -11 -12z"/>
<path d="M2350 1241 c0 -20 40 -101 50 -101 15 0 12 14 -12 65 -20 41 -38 58
-38 36z"/>
<path d="M2118 1232 c-24 -5 -24 -5 18 -65 20 -29 33 -43 30 -31 -26 88 -32
100 -48 96z"/>
<path d="M3107 3845 c-29 -78 -30 -80 -51 -185 -11 -55 -13 -142 -7 -273 1
-39 17 -26 25 20 3 21 8 49 10 63 22 121 31 181 40 275 15 143 17 175 14 175
-2 0 -16 -34 -31 -75z"/>
</g>
</svg>
